G04*
G04 #@! TF.GenerationSoftware,Altium Limited,Altium Designer,20.0.14 (345)*
G04*
G04 Layer_Color=153*
%FSLAX43Y43*%
%MOMM*%
G71*
G01*
G75*
%ADD15R,2.000X1.200*%
%ADD16R,3.000X2.100*%
%ADD17R,1.600X0.900*%
%ADD18R,0.270X0.500*%
%ADD19R,0.800X0.800*%
%ADD20R,0.800X0.800*%
%ADD21R,0.900X0.600*%
%ADD22R,1.000X0.800*%
%ADD23R,0.600X0.900*%
%ADD24R,1.100X1.000*%
%ADD25R,0.600X1.050*%
D15*
X27900Y17800D02*
D03*
Y15800D02*
D03*
D16*
X23450Y22050D02*
D03*
Y11550D02*
D03*
D17*
X31532Y44000D02*
D03*
D18*
X30782Y44950D02*
D03*
X31282D02*
D03*
X31782D02*
D03*
X32282D02*
D03*
Y43050D02*
D03*
X31782D02*
D03*
X31282D02*
D03*
X30782D02*
D03*
D19*
X46890Y19958D02*
D03*
Y18358D02*
D03*
X35300Y20950D02*
D03*
Y19350D02*
D03*
X37700Y20950D02*
D03*
Y19350D02*
D03*
X40100Y20950D02*
D03*
Y19350D02*
D03*
X38868Y46850D02*
D03*
Y45250D02*
D03*
X36000Y46800D02*
D03*
Y45200D02*
D03*
X41468Y46850D02*
D03*
Y45250D02*
D03*
D20*
X32400Y6140D02*
D03*
X30800D02*
D03*
D21*
X46890Y15408D02*
D03*
Y16908D02*
D03*
X35300Y16400D02*
D03*
Y17900D02*
D03*
X37700Y16400D02*
D03*
Y17900D02*
D03*
X40100Y16400D02*
D03*
Y17900D02*
D03*
X38868Y42300D02*
D03*
Y43800D02*
D03*
X36000Y42250D02*
D03*
Y43750D02*
D03*
X41468Y42300D02*
D03*
Y43800D02*
D03*
D22*
X30400Y11450D02*
D03*
X32800Y12400D02*
D03*
Y10500D02*
D03*
D23*
X30850Y8200D02*
D03*
X32350D02*
D03*
X27850Y6140D02*
D03*
X29350D02*
D03*
D24*
X27150Y43000D02*
D03*
X28850D02*
D03*
X27150Y45000D02*
D03*
X28850D02*
D03*
D25*
X45912Y46600D02*
D03*
X44012D02*
D03*
X44962Y43900D02*
D03*
M02*
