G04*
G04 #@! TF.GenerationSoftware,Altium Limited,Altium Designer,20.0.14 (345)*
G04*
G04 Layer_Physical_Order=2*
G04 Layer_Color=16711680*
%FSLAX43Y43*%
%MOMM*%
G71*
G01*
G75*
%ADD13C,0.254*%
%ADD44C,1.500*%
%ADD45C,1.400*%
%ADD46R,1.400X1.400*%
%ADD47C,2.550*%
%ADD48R,1.500X1.500*%
%ADD49R,1.500X1.500*%
%ADD50C,1.600*%
%ADD51C,0.610*%
G36*
X98754Y50673D02*
Y40640D01*
X98754Y40640D01*
X98777Y40523D01*
X98844Y40424D01*
X101294Y37973D01*
Y3937D01*
X98844Y1486D01*
X98844Y1486D01*
X98777Y1387D01*
X98754Y1270D01*
X98754Y1270D01*
Y306D01*
X306D01*
Y53034D01*
X96393D01*
X98754Y50673D01*
D02*
G37*
%LPC*%
G36*
X26543Y51796D02*
Y50927D01*
X27412D01*
X27394Y51062D01*
X27293Y51306D01*
X27132Y51516D01*
X26922Y51677D01*
X26678Y51778D01*
X26543Y51796D01*
D02*
G37*
G36*
X26289D02*
X26154Y51778D01*
X25910Y51677D01*
X25700Y51516D01*
X25539Y51306D01*
X25438Y51062D01*
X25420Y50927D01*
X26289D01*
Y51796D01*
D02*
G37*
G36*
X4127Y50996D02*
Y50127D01*
X4996D01*
X4978Y50262D01*
X4877Y50506D01*
X4716Y50716D01*
X4506Y50877D01*
X4262Y50978D01*
X4127Y50996D01*
D02*
G37*
G36*
X3873D02*
X3738Y50978D01*
X3494Y50877D01*
X3284Y50716D01*
X3123Y50506D01*
X3022Y50262D01*
X3004Y50127D01*
X3873D01*
Y50996D01*
D02*
G37*
G36*
X87262Y51702D02*
X85458D01*
Y49898D01*
X87262D01*
Y51702D01*
D02*
G37*
G36*
X64402D02*
X62598D01*
Y49898D01*
X64402D01*
Y51702D01*
D02*
G37*
G36*
X42558D02*
X40754D01*
Y49898D01*
X42558D01*
Y51702D01*
D02*
G37*
G36*
X96520Y51710D02*
X96284Y51679D01*
X96065Y51588D01*
X95876Y51444D01*
X95732Y51255D01*
X95641Y51036D01*
X95610Y50800D01*
X95641Y50564D01*
X95732Y50345D01*
X95876Y50156D01*
X96065Y50012D01*
X96284Y49921D01*
X96520Y49890D01*
X96756Y49921D01*
X96975Y50012D01*
X97164Y50156D01*
X97308Y50345D01*
X97399Y50564D01*
X97430Y50800D01*
X97399Y51036D01*
X97308Y51255D01*
X97164Y51444D01*
X96975Y51588D01*
X96756Y51679D01*
X96520Y51710D01*
D02*
G37*
G36*
X93980D02*
X93744Y51679D01*
X93525Y51588D01*
X93336Y51444D01*
X93192Y51255D01*
X93101Y51036D01*
X93070Y50800D01*
X93101Y50564D01*
X93192Y50345D01*
X93336Y50156D01*
X93525Y50012D01*
X93744Y49921D01*
X93980Y49890D01*
X94216Y49921D01*
X94435Y50012D01*
X94624Y50156D01*
X94768Y50345D01*
X94859Y50564D01*
X94890Y50800D01*
X94859Y51036D01*
X94768Y51255D01*
X94624Y51444D01*
X94435Y51588D01*
X94216Y51679D01*
X93980Y51710D01*
D02*
G37*
G36*
X83820D02*
X83584Y51679D01*
X83365Y51588D01*
X83176Y51444D01*
X83032Y51255D01*
X82941Y51036D01*
X82910Y50800D01*
X82941Y50564D01*
X83032Y50345D01*
X83176Y50156D01*
X83365Y50012D01*
X83584Y49921D01*
X83820Y49890D01*
X84056Y49921D01*
X84275Y50012D01*
X84464Y50156D01*
X84608Y50345D01*
X84699Y50564D01*
X84730Y50800D01*
X84699Y51036D01*
X84608Y51255D01*
X84464Y51444D01*
X84275Y51588D01*
X84056Y51679D01*
X83820Y51710D01*
D02*
G37*
G36*
X81280D02*
X81044Y51679D01*
X80825Y51588D01*
X80636Y51444D01*
X80492Y51255D01*
X80401Y51036D01*
X80370Y50800D01*
X80401Y50564D01*
X80492Y50345D01*
X80636Y50156D01*
X80825Y50012D01*
X81044Y49921D01*
X81280Y49890D01*
X81516Y49921D01*
X81735Y50012D01*
X81924Y50156D01*
X82068Y50345D01*
X82159Y50564D01*
X82190Y50800D01*
X82159Y51036D01*
X82068Y51255D01*
X81924Y51444D01*
X81735Y51588D01*
X81516Y51679D01*
X81280Y51710D01*
D02*
G37*
G36*
X76200D02*
X75964Y51679D01*
X75745Y51588D01*
X75556Y51444D01*
X75412Y51255D01*
X75321Y51036D01*
X75290Y50800D01*
X75321Y50564D01*
X75412Y50345D01*
X75556Y50156D01*
X75745Y50012D01*
X75964Y49921D01*
X76200Y49890D01*
X76436Y49921D01*
X76655Y50012D01*
X76844Y50156D01*
X76988Y50345D01*
X77079Y50564D01*
X77110Y50800D01*
X77079Y51036D01*
X76988Y51255D01*
X76844Y51444D01*
X76655Y51588D01*
X76436Y51679D01*
X76200Y51710D01*
D02*
G37*
G36*
X73660D02*
X73424Y51679D01*
X73205Y51588D01*
X73016Y51444D01*
X72872Y51255D01*
X72781Y51036D01*
X72750Y50800D01*
X72781Y50564D01*
X72872Y50345D01*
X73016Y50156D01*
X73205Y50012D01*
X73424Y49921D01*
X73660Y49890D01*
X73896Y49921D01*
X74115Y50012D01*
X74304Y50156D01*
X74448Y50345D01*
X74539Y50564D01*
X74570Y50800D01*
X74539Y51036D01*
X74448Y51255D01*
X74304Y51444D01*
X74115Y51588D01*
X73896Y51679D01*
X73660Y51710D01*
D02*
G37*
G36*
X71120D02*
X70884Y51679D01*
X70665Y51588D01*
X70476Y51444D01*
X70332Y51255D01*
X70241Y51036D01*
X70210Y50800D01*
X70241Y50564D01*
X70332Y50345D01*
X70476Y50156D01*
X70665Y50012D01*
X70884Y49921D01*
X71120Y49890D01*
X71356Y49921D01*
X71575Y50012D01*
X71764Y50156D01*
X71908Y50345D01*
X71999Y50564D01*
X72030Y50800D01*
X71999Y51036D01*
X71908Y51255D01*
X71764Y51444D01*
X71575Y51588D01*
X71356Y51679D01*
X71120Y51710D01*
D02*
G37*
G36*
X68580D02*
X68344Y51679D01*
X68125Y51588D01*
X67936Y51444D01*
X67792Y51255D01*
X67701Y51036D01*
X67670Y50800D01*
X67701Y50564D01*
X67792Y50345D01*
X67936Y50156D01*
X68125Y50012D01*
X68344Y49921D01*
X68580Y49890D01*
X68816Y49921D01*
X69035Y50012D01*
X69224Y50156D01*
X69368Y50345D01*
X69459Y50564D01*
X69490Y50800D01*
X69459Y51036D01*
X69368Y51255D01*
X69224Y51444D01*
X69035Y51588D01*
X68816Y51679D01*
X68580Y51710D01*
D02*
G37*
G36*
X60960D02*
X60724Y51679D01*
X60505Y51588D01*
X60316Y51444D01*
X60172Y51255D01*
X60081Y51036D01*
X60050Y50800D01*
X60081Y50564D01*
X60172Y50345D01*
X60316Y50156D01*
X60505Y50012D01*
X60724Y49921D01*
X60960Y49890D01*
X61196Y49921D01*
X61415Y50012D01*
X61604Y50156D01*
X61748Y50345D01*
X61839Y50564D01*
X61870Y50800D01*
X61839Y51036D01*
X61748Y51255D01*
X61604Y51444D01*
X61415Y51588D01*
X61196Y51679D01*
X60960Y51710D01*
D02*
G37*
G36*
X53340D02*
X53104Y51679D01*
X52885Y51588D01*
X52696Y51444D01*
X52552Y51255D01*
X52461Y51036D01*
X52430Y50800D01*
X52461Y50564D01*
X52552Y50345D01*
X52696Y50156D01*
X52885Y50012D01*
X53104Y49921D01*
X53340Y49890D01*
X53576Y49921D01*
X53795Y50012D01*
X53984Y50156D01*
X54128Y50345D01*
X54219Y50564D01*
X54250Y50800D01*
X54219Y51036D01*
X54128Y51255D01*
X53984Y51444D01*
X53795Y51588D01*
X53576Y51679D01*
X53340Y51710D01*
D02*
G37*
G36*
X50800D02*
X50564Y51679D01*
X50345Y51588D01*
X50156Y51444D01*
X50012Y51255D01*
X49921Y51036D01*
X49890Y50800D01*
X49921Y50564D01*
X50012Y50345D01*
X50156Y50156D01*
X50345Y50012D01*
X50564Y49921D01*
X50800Y49890D01*
X51036Y49921D01*
X51255Y50012D01*
X51444Y50156D01*
X51588Y50345D01*
X51679Y50564D01*
X51710Y50800D01*
X51679Y51036D01*
X51588Y51255D01*
X51444Y51444D01*
X51255Y51588D01*
X51036Y51679D01*
X50800Y51710D01*
D02*
G37*
G36*
X48260D02*
X48024Y51679D01*
X47805Y51588D01*
X47616Y51444D01*
X47472Y51255D01*
X47381Y51036D01*
X47350Y50800D01*
X47381Y50564D01*
X47472Y50345D01*
X47616Y50156D01*
X47805Y50012D01*
X48024Y49921D01*
X48260Y49890D01*
X48496Y49921D01*
X48715Y50012D01*
X48904Y50156D01*
X49048Y50345D01*
X49139Y50564D01*
X49170Y50800D01*
X49139Y51036D01*
X49048Y51255D01*
X48904Y51444D01*
X48715Y51588D01*
X48496Y51679D01*
X48260Y51710D01*
D02*
G37*
G36*
X45720D02*
X45484Y51679D01*
X45265Y51588D01*
X45076Y51444D01*
X44932Y51255D01*
X44841Y51036D01*
X44810Y50800D01*
X44841Y50564D01*
X44932Y50345D01*
X45076Y50156D01*
X45265Y50012D01*
X45484Y49921D01*
X45720Y49890D01*
X45956Y49921D01*
X46175Y50012D01*
X46364Y50156D01*
X46508Y50345D01*
X46599Y50564D01*
X46630Y50800D01*
X46599Y51036D01*
X46508Y51255D01*
X46364Y51444D01*
X46175Y51588D01*
X45956Y51679D01*
X45720Y51710D01*
D02*
G37*
G36*
X39116D02*
X38880Y51679D01*
X38661Y51588D01*
X38472Y51444D01*
X38328Y51255D01*
X38237Y51036D01*
X38206Y50800D01*
X38237Y50564D01*
X38328Y50345D01*
X38472Y50156D01*
X38661Y50012D01*
X38880Y49921D01*
X39116Y49890D01*
X39352Y49921D01*
X39571Y50012D01*
X39760Y50156D01*
X39904Y50345D01*
X39995Y50564D01*
X40026Y50800D01*
X39995Y51036D01*
X39904Y51255D01*
X39760Y51444D01*
X39571Y51588D01*
X39352Y51679D01*
X39116Y51710D01*
D02*
G37*
G36*
X36576D02*
X36340Y51679D01*
X36121Y51588D01*
X35932Y51444D01*
X35788Y51255D01*
X35697Y51036D01*
X35666Y50800D01*
X35697Y50564D01*
X35788Y50345D01*
X35932Y50156D01*
X36121Y50012D01*
X36340Y49921D01*
X36576Y49890D01*
X36812Y49921D01*
X37031Y50012D01*
X37220Y50156D01*
X37364Y50345D01*
X37455Y50564D01*
X37486Y50800D01*
X37455Y51036D01*
X37364Y51255D01*
X37220Y51444D01*
X37031Y51588D01*
X36812Y51679D01*
X36576Y51710D01*
D02*
G37*
G36*
X34036D02*
X33800Y51679D01*
X33581Y51588D01*
X33392Y51444D01*
X33248Y51255D01*
X33157Y51036D01*
X33126Y50800D01*
X33157Y50564D01*
X33248Y50345D01*
X33392Y50156D01*
X33581Y50012D01*
X33800Y49921D01*
X34036Y49890D01*
X34272Y49921D01*
X34491Y50012D01*
X34680Y50156D01*
X34824Y50345D01*
X34915Y50564D01*
X34946Y50800D01*
X34915Y51036D01*
X34824Y51255D01*
X34680Y51444D01*
X34491Y51588D01*
X34272Y51679D01*
X34036Y51710D01*
D02*
G37*
G36*
X31496D02*
X31260Y51679D01*
X31041Y51588D01*
X30852Y51444D01*
X30708Y51255D01*
X30617Y51036D01*
X30586Y50800D01*
X30617Y50564D01*
X30708Y50345D01*
X30852Y50156D01*
X31041Y50012D01*
X31260Y49921D01*
X31496Y49890D01*
X31732Y49921D01*
X31951Y50012D01*
X32140Y50156D01*
X32284Y50345D01*
X32375Y50564D01*
X32406Y50800D01*
X32375Y51036D01*
X32284Y51255D01*
X32140Y51444D01*
X31951Y51588D01*
X31732Y51679D01*
X31496Y51710D01*
D02*
G37*
G36*
X28956D02*
X28720Y51679D01*
X28501Y51588D01*
X28312Y51444D01*
X28168Y51255D01*
X28077Y51036D01*
X28046Y50800D01*
X28077Y50564D01*
X28168Y50345D01*
X28312Y50156D01*
X28501Y50012D01*
X28720Y49921D01*
X28956Y49890D01*
X29192Y49921D01*
X29411Y50012D01*
X29600Y50156D01*
X29744Y50345D01*
X29835Y50564D01*
X29866Y50800D01*
X29835Y51036D01*
X29744Y51255D01*
X29600Y51444D01*
X29411Y51588D01*
X29192Y51679D01*
X28956Y51710D01*
D02*
G37*
G36*
X23876D02*
X23640Y51679D01*
X23421Y51588D01*
X23232Y51444D01*
X23088Y51255D01*
X22997Y51036D01*
X22966Y50800D01*
X22997Y50564D01*
X23088Y50345D01*
X23232Y50156D01*
X23421Y50012D01*
X23640Y49921D01*
X23876Y49890D01*
X24112Y49921D01*
X24331Y50012D01*
X24520Y50156D01*
X24664Y50345D01*
X24755Y50564D01*
X24786Y50800D01*
X24755Y51036D01*
X24664Y51255D01*
X24520Y51444D01*
X24331Y51588D01*
X24112Y51679D01*
X23876Y51710D01*
D02*
G37*
G36*
X27412Y50673D02*
X26543D01*
Y49804D01*
X26678Y49822D01*
X26922Y49923D01*
X27132Y50084D01*
X27293Y50294D01*
X27394Y50538D01*
X27412Y50673D01*
D02*
G37*
G36*
X26289D02*
X25420D01*
X25438Y50538D01*
X25539Y50294D01*
X25700Y50084D01*
X25910Y49923D01*
X26154Y49822D01*
X26289Y49804D01*
Y50673D01*
D02*
G37*
G36*
X90170Y52561D02*
X89826Y52527D01*
X89496Y52427D01*
X89192Y52264D01*
X88925Y52045D01*
X88706Y51778D01*
X88543Y51474D01*
X88443Y51144D01*
X88409Y50800D01*
X88443Y50456D01*
X88543Y50126D01*
X88706Y49822D01*
X88925Y49555D01*
X89192Y49336D01*
X89496Y49173D01*
X89826Y49073D01*
X90170Y49039D01*
X90514Y49073D01*
X90844Y49173D01*
X91148Y49336D01*
X91415Y49555D01*
X91634Y49822D01*
X91797Y50126D01*
X91897Y50456D01*
X91931Y50800D01*
X91897Y51144D01*
X91797Y51474D01*
X91634Y51778D01*
X91415Y52045D01*
X91148Y52264D01*
X90844Y52427D01*
X90514Y52527D01*
X90170Y52561D01*
D02*
G37*
G36*
X15240D02*
X14896Y52527D01*
X14566Y52427D01*
X14262Y52264D01*
X13995Y52045D01*
X13776Y51778D01*
X13613Y51474D01*
X13513Y51144D01*
X13479Y50800D01*
X13513Y50456D01*
X13613Y50126D01*
X13776Y49822D01*
X13995Y49555D01*
X14262Y49336D01*
X14566Y49173D01*
X14896Y49073D01*
X15240Y49039D01*
X15584Y49073D01*
X15914Y49173D01*
X16218Y49336D01*
X16485Y49555D01*
X16704Y49822D01*
X16867Y50126D01*
X16967Y50456D01*
X17001Y50800D01*
X16967Y51144D01*
X16867Y51474D01*
X16704Y51778D01*
X16485Y52045D01*
X16218Y52264D01*
X15914Y52427D01*
X15584Y52527D01*
X15240Y52561D01*
D02*
G37*
G36*
X4996Y49873D02*
X4127D01*
Y49004D01*
X4262Y49022D01*
X4506Y49123D01*
X4716Y49284D01*
X4877Y49494D01*
X4978Y49738D01*
X4996Y49873D01*
D02*
G37*
G36*
X3873D02*
X3004D01*
X3022Y49738D01*
X3123Y49494D01*
X3284Y49284D01*
X3494Y49123D01*
X3738Y49022D01*
X3873Y49004D01*
Y49873D01*
D02*
G37*
G36*
X96520Y49170D02*
X96284Y49139D01*
X96065Y49048D01*
X95876Y48904D01*
X95732Y48715D01*
X95641Y48496D01*
X95610Y48260D01*
X95641Y48024D01*
X95732Y47805D01*
X95876Y47616D01*
X96065Y47472D01*
X96284Y47381D01*
X96520Y47350D01*
X96756Y47381D01*
X96975Y47472D01*
X97164Y47616D01*
X97308Y47805D01*
X97399Y48024D01*
X97430Y48260D01*
X97399Y48496D01*
X97308Y48715D01*
X97164Y48904D01*
X96975Y49048D01*
X96756Y49139D01*
X96520Y49170D01*
D02*
G37*
G36*
X93980D02*
X93744Y49139D01*
X93525Y49048D01*
X93336Y48904D01*
X93192Y48715D01*
X93101Y48496D01*
X93070Y48260D01*
X93101Y48024D01*
X93192Y47805D01*
X93336Y47616D01*
X93525Y47472D01*
X93744Y47381D01*
X93980Y47350D01*
X94216Y47381D01*
X94435Y47472D01*
X94624Y47616D01*
X94768Y47805D01*
X94859Y48024D01*
X94890Y48260D01*
X94859Y48496D01*
X94768Y48715D01*
X94624Y48904D01*
X94435Y49048D01*
X94216Y49139D01*
X93980Y49170D01*
D02*
G37*
G36*
X88127Y46996D02*
Y46127D01*
X88996D01*
X88978Y46262D01*
X88877Y46506D01*
X88716Y46716D01*
X88506Y46877D01*
X88262Y46978D01*
X88127Y46996D01*
D02*
G37*
G36*
X87873D02*
X87738Y46978D01*
X87494Y46877D01*
X87284Y46716D01*
X87123Y46506D01*
X87022Y46262D01*
X87004Y46127D01*
X87873D01*
Y46996D01*
D02*
G37*
G36*
X43900Y48299D02*
X43722Y48263D01*
X43570Y48162D01*
X43469Y48011D01*
X43435Y47839D01*
X41310Y45714D01*
X31375D01*
Y47479D01*
X31362Y47509D01*
Y47542D01*
X31339Y47565D01*
X31327Y47596D01*
X31296Y47608D01*
X31273Y47632D01*
X31223Y47652D01*
X31190D01*
X31160Y47665D01*
X27750D01*
X27633Y47617D01*
X27585Y47500D01*
Y41290D01*
X26317D01*
X26201Y41242D01*
X17283Y32324D01*
X17235Y32208D01*
Y21400D01*
X17283Y21283D01*
X35114Y3452D01*
X35079Y3308D01*
X34916Y3184D01*
X34772Y2995D01*
X34681Y2776D01*
X34650Y2540D01*
X34681Y2304D01*
X34772Y2085D01*
X34916Y1896D01*
X35105Y1752D01*
X35324Y1661D01*
X35560Y1630D01*
X35796Y1661D01*
X36015Y1752D01*
X36204Y1896D01*
X36215Y1911D01*
X36335Y1870D01*
X36335Y1166D01*
X36383Y1049D01*
X36473Y959D01*
X36590Y911D01*
X39600Y911D01*
X39717Y959D01*
X39717Y959D01*
X39765Y1076D01*
Y1834D01*
X39885Y1874D01*
X39924Y1824D01*
X40134Y1663D01*
X40378Y1562D01*
X40513Y1544D01*
Y2540D01*
Y3536D01*
X40378Y3518D01*
X40134Y3417D01*
X39924Y3256D01*
X39885Y3206D01*
X39765Y3246D01*
X39765Y6200D01*
X39717Y6317D01*
X33765Y12268D01*
X33765Y19930D01*
X33717Y20047D01*
X33600Y20095D01*
X27378Y20095D01*
X24105Y23368D01*
Y25471D01*
X24232Y25496D01*
X24233Y25494D01*
X24394Y25284D01*
X24604Y25123D01*
X24848Y25022D01*
X24983Y25004D01*
Y26000D01*
Y26996D01*
X24848Y26978D01*
X24604Y26877D01*
X24394Y26716D01*
X24233Y26506D01*
X24232Y26504D01*
X24105Y26529D01*
Y27642D01*
X25147Y28683D01*
X27767Y31303D01*
X27815Y31420D01*
Y33124D01*
X27942Y33149D01*
X28023Y32954D01*
X28184Y32744D01*
X28394Y32583D01*
X28638Y32482D01*
X28773Y32464D01*
Y33460D01*
Y34456D01*
X28638Y34438D01*
X28394Y34337D01*
X28184Y34176D01*
X28023Y33966D01*
X27942Y33771D01*
X27815Y33796D01*
Y37682D01*
X30708Y40574D01*
X30708Y40574D01*
X31327Y41193D01*
X31375Y41310D01*
Y43665D01*
X31368Y43681D01*
X31372Y43697D01*
X31345Y43737D01*
X31344Y43741D01*
X31339Y43762D01*
X31327Y43780D01*
X31327Y43782D01*
X31326Y43782D01*
X31257Y43886D01*
X31234Y44000D01*
X31257Y44114D01*
X31326Y44218D01*
X31327Y44218D01*
X31327Y44220D01*
X31339Y44238D01*
X31344Y44259D01*
X31345Y44263D01*
X31372Y44303D01*
X31368Y44319D01*
X31375Y44335D01*
Y45048D01*
X41449D01*
X41576Y45073D01*
X41684Y45145D01*
X43906Y47367D01*
X44078Y47402D01*
X44230Y47503D01*
X44331Y47654D01*
X44366Y47832D01*
X44331Y48011D01*
X44230Y48162D01*
X44078Y48263D01*
X43900Y48299D01*
D02*
G37*
G36*
X88996Y45873D02*
X88127D01*
Y45004D01*
X88262Y45022D01*
X88506Y45123D01*
X88716Y45284D01*
X88877Y45494D01*
X88978Y45738D01*
X88996Y45873D01*
D02*
G37*
G36*
X87873D02*
X87004D01*
X87022Y45738D01*
X87123Y45494D01*
X87284Y45284D01*
X87494Y45123D01*
X87738Y45022D01*
X87873Y45004D01*
Y45873D01*
D02*
G37*
G36*
X96520Y46630D02*
X96284Y46599D01*
X96065Y46508D01*
X95876Y46364D01*
X95732Y46175D01*
X95641Y45956D01*
X95610Y45720D01*
X95641Y45484D01*
X95732Y45265D01*
X95876Y45076D01*
X96065Y44932D01*
X96284Y44841D01*
X96520Y44810D01*
X96756Y44841D01*
X96975Y44932D01*
X97164Y45076D01*
X97308Y45265D01*
X97399Y45484D01*
X97430Y45720D01*
X97399Y45956D01*
X97308Y46175D01*
X97164Y46364D01*
X96975Y46508D01*
X96756Y46599D01*
X96520Y46630D01*
D02*
G37*
G36*
X93980D02*
X93744Y46599D01*
X93525Y46508D01*
X93336Y46364D01*
X93192Y46175D01*
X93101Y45956D01*
X93070Y45720D01*
X93101Y45484D01*
X93192Y45265D01*
X93336Y45076D01*
X93525Y44932D01*
X93744Y44841D01*
X93980Y44810D01*
X94216Y44841D01*
X94435Y44932D01*
X94624Y45076D01*
X94768Y45265D01*
X94859Y45484D01*
X94890Y45720D01*
X94859Y45956D01*
X94768Y46175D01*
X94624Y46364D01*
X94435Y46508D01*
X94216Y46599D01*
X93980Y46630D01*
D02*
G37*
G36*
X58420Y51710D02*
X58184Y51679D01*
X57965Y51588D01*
X57776Y51444D01*
X57632Y51255D01*
X57541Y51036D01*
X57510Y50800D01*
X57541Y50564D01*
X57632Y50345D01*
X57776Y50156D01*
X57965Y50012D01*
X58087Y49961D01*
Y49508D01*
X51107Y42528D01*
X50815D01*
X50755Y42640D01*
X50776Y42672D01*
X50810Y42844D01*
X56116Y48149D01*
X56188Y48257D01*
X56213Y48385D01*
Y49961D01*
X56335Y50012D01*
X56524Y50156D01*
X56668Y50345D01*
X56759Y50564D01*
X56790Y50800D01*
X56759Y51036D01*
X56668Y51255D01*
X56524Y51444D01*
X56335Y51588D01*
X56116Y51679D01*
X55880Y51710D01*
X55644Y51679D01*
X55425Y51588D01*
X55236Y51444D01*
X55092Y51255D01*
X55001Y51036D01*
X54970Y50800D01*
X55001Y50564D01*
X55092Y50345D01*
X55236Y50156D01*
X55425Y50012D01*
X55547Y49961D01*
Y48523D01*
X50339Y43315D01*
X50167Y43281D01*
X50015Y43180D01*
X49914Y43028D01*
X49879Y42850D01*
X49914Y42672D01*
X49935Y42640D01*
X49875Y42528D01*
X48944D01*
X48799Y42626D01*
X48620Y42661D01*
X48442Y42626D01*
X48290Y42525D01*
X48189Y42373D01*
X48154Y42195D01*
X48189Y42017D01*
X48290Y41865D01*
X48442Y41764D01*
X48620Y41729D01*
X48799Y41764D01*
X48944Y41862D01*
X51245D01*
X51373Y41887D01*
X51481Y41959D01*
X58656Y49134D01*
X58728Y49242D01*
X58753Y49370D01*
Y49961D01*
X58875Y50012D01*
X59064Y50156D01*
X59208Y50345D01*
X59299Y50564D01*
X59330Y50800D01*
X59299Y51036D01*
X59208Y51255D01*
X59064Y51444D01*
X58875Y51588D01*
X58656Y51679D01*
X58420Y51710D01*
D02*
G37*
G36*
X96520Y44090D02*
X96284Y44059D01*
X96065Y43968D01*
X95876Y43824D01*
X95732Y43635D01*
X95641Y43416D01*
X95610Y43180D01*
X95641Y42944D01*
X95732Y42725D01*
X95876Y42536D01*
X96065Y42392D01*
X96284Y42301D01*
X96520Y42270D01*
X96756Y42301D01*
X96975Y42392D01*
X97164Y42536D01*
X97308Y42725D01*
X97399Y42944D01*
X97430Y43180D01*
X97399Y43416D01*
X97308Y43635D01*
X97164Y43824D01*
X96975Y43968D01*
X96756Y44059D01*
X96520Y44090D01*
D02*
G37*
G36*
X93980D02*
X93744Y44059D01*
X93525Y43968D01*
X93336Y43824D01*
X93192Y43635D01*
X93101Y43416D01*
X93070Y43180D01*
X93101Y42944D01*
X93192Y42725D01*
X93336Y42536D01*
X93525Y42392D01*
X93744Y42301D01*
X93980Y42270D01*
X94216Y42301D01*
X94435Y42392D01*
X94624Y42536D01*
X94768Y42725D01*
X94859Y42944D01*
X94890Y43180D01*
X94859Y43416D01*
X94768Y43635D01*
X94624Y43824D01*
X94435Y43968D01*
X94216Y44059D01*
X93980Y44090D01*
D02*
G37*
G36*
X78740Y51710D02*
X78504Y51679D01*
X78285Y51588D01*
X78096Y51444D01*
X77952Y51255D01*
X77861Y51036D01*
X77830Y50800D01*
X77861Y50564D01*
X77952Y50345D01*
X78096Y50156D01*
X78285Y50012D01*
X78407Y49961D01*
Y48478D01*
X70562Y40633D01*
X49676D01*
X49530Y40731D01*
X49352Y40766D01*
X49173Y40731D01*
X49022Y40630D01*
X48921Y40478D01*
X48885Y40300D01*
X48921Y40122D01*
X49022Y39970D01*
X49173Y39869D01*
X49352Y39834D01*
X49530Y39869D01*
X49676Y39967D01*
X70700D01*
X70828Y39992D01*
X70936Y40064D01*
X78976Y48104D01*
X79048Y48212D01*
X79073Y48340D01*
Y49961D01*
X79195Y50012D01*
X79384Y50156D01*
X79528Y50345D01*
X79619Y50564D01*
X79650Y50800D01*
X79619Y51036D01*
X79528Y51255D01*
X79384Y51444D01*
X79195Y51588D01*
X78976Y51679D01*
X78740Y51710D01*
D02*
G37*
G36*
X96520Y41550D02*
X96284Y41519D01*
X96065Y41428D01*
X95876Y41284D01*
X95732Y41095D01*
X95641Y40876D01*
X95610Y40640D01*
X95641Y40404D01*
X95732Y40185D01*
X95876Y39996D01*
X96065Y39852D01*
X96284Y39761D01*
X96520Y39730D01*
X96756Y39761D01*
X96975Y39852D01*
X97164Y39996D01*
X97308Y40185D01*
X97399Y40404D01*
X97430Y40640D01*
X97399Y40876D01*
X97308Y41095D01*
X97164Y41284D01*
X96975Y41428D01*
X96756Y41519D01*
X96520Y41550D01*
D02*
G37*
G36*
X93980D02*
X93744Y41519D01*
X93525Y41428D01*
X93336Y41284D01*
X93192Y41095D01*
X93101Y40876D01*
X93070Y40640D01*
X93101Y40404D01*
X93192Y40185D01*
X93336Y39996D01*
X93525Y39852D01*
X93744Y39761D01*
X93980Y39730D01*
X94216Y39761D01*
X94435Y39852D01*
X94624Y39996D01*
X94768Y40185D01*
X94859Y40404D01*
X94890Y40640D01*
X94859Y40876D01*
X94768Y41095D01*
X94624Y41284D01*
X94435Y41428D01*
X94216Y41519D01*
X93980Y41550D01*
D02*
G37*
G36*
X96520Y39010D02*
X96284Y38979D01*
X96065Y38888D01*
X95876Y38744D01*
X95732Y38555D01*
X95641Y38336D01*
X95610Y38100D01*
X95641Y37864D01*
X95732Y37645D01*
X95876Y37456D01*
X96065Y37312D01*
X96284Y37221D01*
X96520Y37190D01*
X96756Y37221D01*
X96975Y37312D01*
X97164Y37456D01*
X97308Y37645D01*
X97399Y37864D01*
X97430Y38100D01*
X97399Y38336D01*
X97308Y38555D01*
X97164Y38744D01*
X96975Y38888D01*
X96756Y38979D01*
X96520Y39010D01*
D02*
G37*
G36*
X93980D02*
X93744Y38979D01*
X93525Y38888D01*
X93336Y38744D01*
X93192Y38555D01*
X93101Y38336D01*
X93070Y38100D01*
X93101Y37864D01*
X93192Y37645D01*
X93336Y37456D01*
X93525Y37312D01*
X93744Y37221D01*
X93980Y37190D01*
X94216Y37221D01*
X94435Y37312D01*
X94624Y37456D01*
X94768Y37645D01*
X94859Y37864D01*
X94890Y38100D01*
X94859Y38336D01*
X94768Y38555D01*
X94624Y38744D01*
X94435Y38888D01*
X94216Y38979D01*
X93980Y39010D01*
D02*
G37*
G36*
X36520Y36910D02*
X36284Y36879D01*
X36065Y36788D01*
X35876Y36644D01*
X35732Y36455D01*
X35641Y36236D01*
X35610Y36000D01*
X35641Y35764D01*
X35732Y35545D01*
X35876Y35356D01*
X36065Y35212D01*
X36284Y35121D01*
X36520Y35090D01*
X36756Y35121D01*
X36975Y35212D01*
X37164Y35356D01*
X37308Y35545D01*
X37399Y35764D01*
X37430Y36000D01*
X37399Y36236D01*
X37308Y36455D01*
X37164Y36644D01*
X36975Y36788D01*
X36756Y36879D01*
X36520Y36910D01*
D02*
G37*
G36*
X33980D02*
X33744Y36879D01*
X33525Y36788D01*
X33336Y36644D01*
X33192Y36455D01*
X33101Y36236D01*
X33070Y36000D01*
X33101Y35764D01*
X33192Y35545D01*
X33336Y35356D01*
X33525Y35212D01*
X33744Y35121D01*
X33980Y35090D01*
X34216Y35121D01*
X34435Y35212D01*
X34624Y35356D01*
X34768Y35545D01*
X34859Y35764D01*
X34890Y36000D01*
X34859Y36236D01*
X34768Y36455D01*
X34624Y36644D01*
X34435Y36788D01*
X34216Y36879D01*
X33980Y36910D01*
D02*
G37*
G36*
X31440D02*
X31204Y36879D01*
X30985Y36788D01*
X30796Y36644D01*
X30652Y36455D01*
X30561Y36236D01*
X30530Y36000D01*
X30561Y35764D01*
X30652Y35545D01*
X30796Y35356D01*
X30985Y35212D01*
X31204Y35121D01*
X31440Y35090D01*
X31676Y35121D01*
X31895Y35212D01*
X32084Y35356D01*
X32228Y35545D01*
X32319Y35764D01*
X32350Y36000D01*
X32319Y36236D01*
X32228Y36455D01*
X32084Y36644D01*
X31895Y36788D01*
X31676Y36879D01*
X31440Y36910D01*
D02*
G37*
G36*
X28900D02*
X28664Y36879D01*
X28445Y36788D01*
X28256Y36644D01*
X28112Y36455D01*
X28021Y36236D01*
X27990Y36000D01*
X28021Y35764D01*
X28112Y35545D01*
X28256Y35356D01*
X28445Y35212D01*
X28664Y35121D01*
X28900Y35090D01*
X29136Y35121D01*
X29355Y35212D01*
X29544Y35356D01*
X29688Y35545D01*
X29779Y35764D01*
X29810Y36000D01*
X29779Y36236D01*
X29688Y36455D01*
X29544Y36644D01*
X29355Y36788D01*
X29136Y36879D01*
X28900Y36910D01*
D02*
G37*
G36*
X96520Y36470D02*
X96284Y36439D01*
X96065Y36348D01*
X95876Y36204D01*
X95732Y36015D01*
X95641Y35796D01*
X95610Y35560D01*
X95641Y35324D01*
X95732Y35105D01*
X95876Y34916D01*
X96065Y34772D01*
X96284Y34681D01*
X96520Y34650D01*
X96756Y34681D01*
X96975Y34772D01*
X97164Y34916D01*
X97308Y35105D01*
X97399Y35324D01*
X97430Y35560D01*
X97399Y35796D01*
X97308Y36015D01*
X97164Y36204D01*
X96975Y36348D01*
X96756Y36439D01*
X96520Y36470D01*
D02*
G37*
G36*
X93980D02*
X93744Y36439D01*
X93525Y36348D01*
X93336Y36204D01*
X93192Y36015D01*
X93101Y35796D01*
X93070Y35560D01*
X93101Y35324D01*
X93192Y35105D01*
X93336Y34916D01*
X93525Y34772D01*
X93744Y34681D01*
X93980Y34650D01*
X94216Y34681D01*
X94435Y34772D01*
X94624Y34916D01*
X94768Y35105D01*
X94859Y35324D01*
X94890Y35560D01*
X94859Y35796D01*
X94768Y36015D01*
X94624Y36204D01*
X94435Y36348D01*
X94216Y36439D01*
X93980Y36470D01*
D02*
G37*
G36*
X66040Y37321D02*
X65696Y37287D01*
X65366Y37187D01*
X65062Y37024D01*
X64795Y36805D01*
X64576Y36538D01*
X64413Y36234D01*
X64313Y35904D01*
X64279Y35560D01*
X64313Y35216D01*
X64413Y34886D01*
X64576Y34582D01*
X64795Y34315D01*
X65062Y34096D01*
X65366Y33933D01*
X65696Y33833D01*
X66040Y33799D01*
X66384Y33833D01*
X66714Y33933D01*
X67018Y34096D01*
X67285Y34315D01*
X67504Y34582D01*
X67667Y34886D01*
X67767Y35216D01*
X67801Y35560D01*
X67767Y35904D01*
X67667Y36234D01*
X67504Y36538D01*
X67285Y36805D01*
X67018Y37024D01*
X66714Y37187D01*
X66384Y37287D01*
X66040Y37321D01*
D02*
G37*
G36*
X29027Y34456D02*
Y33587D01*
X29896D01*
X29878Y33722D01*
X29777Y33966D01*
X29616Y34176D01*
X29406Y34337D01*
X29162Y34438D01*
X29027Y34456D01*
D02*
G37*
G36*
X36520Y34370D02*
X36284Y34339D01*
X36065Y34248D01*
X35876Y34104D01*
X35732Y33915D01*
X35641Y33696D01*
X35610Y33460D01*
X35641Y33224D01*
X35732Y33005D01*
X35876Y32816D01*
X36065Y32672D01*
X36284Y32581D01*
X36520Y32550D01*
X36756Y32581D01*
X36975Y32672D01*
X37164Y32816D01*
X37308Y33005D01*
X37399Y33224D01*
X37430Y33460D01*
X37399Y33696D01*
X37308Y33915D01*
X37164Y34104D01*
X36975Y34248D01*
X36756Y34339D01*
X36520Y34370D01*
D02*
G37*
G36*
X33980D02*
X33744Y34339D01*
X33525Y34248D01*
X33336Y34104D01*
X33192Y33915D01*
X33101Y33696D01*
X33070Y33460D01*
X33101Y33224D01*
X33192Y33005D01*
X33336Y32816D01*
X33525Y32672D01*
X33744Y32581D01*
X33980Y32550D01*
X34216Y32581D01*
X34435Y32672D01*
X34624Y32816D01*
X34768Y33005D01*
X34859Y33224D01*
X34890Y33460D01*
X34859Y33696D01*
X34768Y33915D01*
X34624Y34104D01*
X34435Y34248D01*
X34216Y34339D01*
X33980Y34370D01*
D02*
G37*
G36*
X31440D02*
X31204Y34339D01*
X30985Y34248D01*
X30796Y34104D01*
X30652Y33915D01*
X30561Y33696D01*
X30530Y33460D01*
X30561Y33224D01*
X30652Y33005D01*
X30796Y32816D01*
X30985Y32672D01*
X31204Y32581D01*
X31440Y32550D01*
X31676Y32581D01*
X31895Y32672D01*
X32084Y32816D01*
X32228Y33005D01*
X32319Y33224D01*
X32350Y33460D01*
X32319Y33696D01*
X32228Y33915D01*
X32084Y34104D01*
X31895Y34248D01*
X31676Y34339D01*
X31440Y34370D01*
D02*
G37*
G36*
X29896Y33333D02*
X29027D01*
Y32464D01*
X29162Y32482D01*
X29406Y32583D01*
X29616Y32744D01*
X29777Y32954D01*
X29878Y33198D01*
X29896Y33333D01*
D02*
G37*
G36*
X96520Y33930D02*
X96284Y33899D01*
X96065Y33808D01*
X95876Y33664D01*
X95732Y33475D01*
X95641Y33256D01*
X95610Y33020D01*
X95641Y32784D01*
X95732Y32565D01*
X95876Y32376D01*
X96065Y32232D01*
X96284Y32141D01*
X96520Y32110D01*
X96756Y32141D01*
X96975Y32232D01*
X97164Y32376D01*
X97308Y32565D01*
X97399Y32784D01*
X97430Y33020D01*
X97399Y33256D01*
X97308Y33475D01*
X97164Y33664D01*
X96975Y33808D01*
X96756Y33899D01*
X96520Y33930D01*
D02*
G37*
G36*
X93980D02*
X93744Y33899D01*
X93525Y33808D01*
X93336Y33664D01*
X93192Y33475D01*
X93101Y33256D01*
X93070Y33020D01*
X93101Y32784D01*
X93192Y32565D01*
X93336Y32376D01*
X93525Y32232D01*
X93744Y32141D01*
X93980Y32110D01*
X94216Y32141D01*
X94435Y32232D01*
X94624Y32376D01*
X94768Y32565D01*
X94859Y32784D01*
X94890Y33020D01*
X94859Y33256D01*
X94768Y33475D01*
X94624Y33664D01*
X94435Y33808D01*
X94216Y33899D01*
X93980Y33930D01*
D02*
G37*
G36*
X96520Y31390D02*
X96284Y31359D01*
X96065Y31268D01*
X95876Y31124D01*
X95732Y30935D01*
X95641Y30716D01*
X95610Y30480D01*
X95641Y30244D01*
X95732Y30025D01*
X95876Y29836D01*
X96065Y29692D01*
X96284Y29601D01*
X96520Y29570D01*
X96756Y29601D01*
X96975Y29692D01*
X97164Y29836D01*
X97308Y30025D01*
X97399Y30244D01*
X97430Y30480D01*
X97399Y30716D01*
X97308Y30935D01*
X97164Y31124D01*
X96975Y31268D01*
X96756Y31359D01*
X96520Y31390D01*
D02*
G37*
G36*
X93980D02*
X93744Y31359D01*
X93525Y31268D01*
X93336Y31124D01*
X93192Y30935D01*
X93101Y30716D01*
X93070Y30480D01*
X93101Y30244D01*
X93192Y30025D01*
X93336Y29836D01*
X93525Y29692D01*
X93744Y29601D01*
X93980Y29570D01*
X94216Y29601D01*
X94435Y29692D01*
X94624Y29836D01*
X94768Y30025D01*
X94859Y30244D01*
X94890Y30480D01*
X94859Y30716D01*
X94768Y30935D01*
X94624Y31124D01*
X94435Y31268D01*
X94216Y31359D01*
X93980Y31390D01*
D02*
G37*
G36*
X96520Y28850D02*
X96284Y28819D01*
X96065Y28728D01*
X95876Y28584D01*
X95732Y28395D01*
X95641Y28176D01*
X95610Y27940D01*
X95641Y27704D01*
X95732Y27485D01*
X95876Y27296D01*
X96065Y27152D01*
X96284Y27061D01*
X96520Y27030D01*
X96756Y27061D01*
X96975Y27152D01*
X97164Y27296D01*
X97308Y27485D01*
X97399Y27704D01*
X97430Y27940D01*
X97399Y28176D01*
X97308Y28395D01*
X97164Y28584D01*
X96975Y28728D01*
X96756Y28819D01*
X96520Y28850D01*
D02*
G37*
G36*
X93980D02*
X93744Y28819D01*
X93525Y28728D01*
X93336Y28584D01*
X93192Y28395D01*
X93101Y28176D01*
X93070Y27940D01*
X93101Y27704D01*
X93192Y27485D01*
X93336Y27296D01*
X93525Y27152D01*
X93744Y27061D01*
X93980Y27030D01*
X94216Y27061D01*
X94435Y27152D01*
X94624Y27296D01*
X94768Y27485D01*
X94859Y27704D01*
X94890Y27940D01*
X94859Y28176D01*
X94768Y28395D01*
X94624Y28584D01*
X94435Y28728D01*
X94216Y28819D01*
X93980Y28850D01*
D02*
G37*
G36*
X25237Y26996D02*
Y26127D01*
X26106D01*
X26088Y26262D01*
X25987Y26506D01*
X25826Y26716D01*
X25616Y26877D01*
X25372Y26978D01*
X25237Y26996D01*
D02*
G37*
G36*
X42890Y26910D02*
X42654Y26879D01*
X42435Y26788D01*
X42246Y26644D01*
X42102Y26455D01*
X42011Y26236D01*
X41980Y26000D01*
X42011Y25764D01*
X42102Y25545D01*
X42246Y25356D01*
X42435Y25212D01*
X42654Y25121D01*
X42890Y25090D01*
X43126Y25121D01*
X43345Y25212D01*
X43534Y25356D01*
X43678Y25545D01*
X43769Y25764D01*
X43800Y26000D01*
X43769Y26236D01*
X43678Y26455D01*
X43534Y26644D01*
X43345Y26788D01*
X43126Y26879D01*
X42890Y26910D01*
D02*
G37*
G36*
X40350D02*
X40114Y26879D01*
X39895Y26788D01*
X39706Y26644D01*
X39562Y26455D01*
X39471Y26236D01*
X39440Y26000D01*
X39471Y25764D01*
X39562Y25545D01*
X39706Y25356D01*
X39895Y25212D01*
X40114Y25121D01*
X40350Y25090D01*
X40586Y25121D01*
X40805Y25212D01*
X40994Y25356D01*
X41138Y25545D01*
X41229Y25764D01*
X41260Y26000D01*
X41229Y26236D01*
X41138Y26455D01*
X40994Y26644D01*
X40805Y26788D01*
X40586Y26879D01*
X40350Y26910D01*
D02*
G37*
G36*
X37810D02*
X37574Y26879D01*
X37355Y26788D01*
X37166Y26644D01*
X37022Y26455D01*
X36931Y26236D01*
X36900Y26000D01*
X36931Y25764D01*
X37022Y25545D01*
X37166Y25356D01*
X37355Y25212D01*
X37574Y25121D01*
X37810Y25090D01*
X38046Y25121D01*
X38265Y25212D01*
X38454Y25356D01*
X38598Y25545D01*
X38689Y25764D01*
X38720Y26000D01*
X38689Y26236D01*
X38598Y26455D01*
X38454Y26644D01*
X38265Y26788D01*
X38046Y26879D01*
X37810Y26910D01*
D02*
G37*
G36*
X35270D02*
X35034Y26879D01*
X34815Y26788D01*
X34626Y26644D01*
X34482Y26455D01*
X34391Y26236D01*
X34360Y26000D01*
X34391Y25764D01*
X34482Y25545D01*
X34626Y25356D01*
X34815Y25212D01*
X35034Y25121D01*
X35270Y25090D01*
X35506Y25121D01*
X35725Y25212D01*
X35914Y25356D01*
X36058Y25545D01*
X36149Y25764D01*
X36180Y26000D01*
X36149Y26236D01*
X36058Y26455D01*
X35914Y26644D01*
X35725Y26788D01*
X35506Y26879D01*
X35270Y26910D01*
D02*
G37*
G36*
X32730D02*
X32494Y26879D01*
X32275Y26788D01*
X32086Y26644D01*
X31942Y26455D01*
X31851Y26236D01*
X31820Y26000D01*
X31851Y25764D01*
X31942Y25545D01*
X32086Y25356D01*
X32275Y25212D01*
X32494Y25121D01*
X32730Y25090D01*
X32966Y25121D01*
X33185Y25212D01*
X33374Y25356D01*
X33518Y25545D01*
X33609Y25764D01*
X33640Y26000D01*
X33609Y26236D01*
X33518Y26455D01*
X33374Y26644D01*
X33185Y26788D01*
X32966Y26879D01*
X32730Y26910D01*
D02*
G37*
G36*
X30190D02*
X29954Y26879D01*
X29735Y26788D01*
X29546Y26644D01*
X29402Y26455D01*
X29311Y26236D01*
X29280Y26000D01*
X29311Y25764D01*
X29402Y25545D01*
X29546Y25356D01*
X29735Y25212D01*
X29954Y25121D01*
X30190Y25090D01*
X30426Y25121D01*
X30645Y25212D01*
X30834Y25356D01*
X30978Y25545D01*
X31069Y25764D01*
X31100Y26000D01*
X31069Y26236D01*
X30978Y26455D01*
X30834Y26644D01*
X30645Y26788D01*
X30426Y26879D01*
X30190Y26910D01*
D02*
G37*
G36*
X27650D02*
X27414Y26879D01*
X27195Y26788D01*
X27006Y26644D01*
X26862Y26455D01*
X26771Y26236D01*
X26740Y26000D01*
X26771Y25764D01*
X26862Y25545D01*
X27006Y25356D01*
X27195Y25212D01*
X27414Y25121D01*
X27650Y25090D01*
X27886Y25121D01*
X28105Y25212D01*
X28294Y25356D01*
X28438Y25545D01*
X28529Y25764D01*
X28560Y26000D01*
X28529Y26236D01*
X28438Y26455D01*
X28294Y26644D01*
X28105Y26788D01*
X27886Y26879D01*
X27650Y26910D01*
D02*
G37*
G36*
X26106Y25873D02*
X25237D01*
Y25004D01*
X25372Y25022D01*
X25616Y25123D01*
X25826Y25284D01*
X25987Y25494D01*
X26088Y25738D01*
X26106Y25873D01*
D02*
G37*
G36*
X96520Y26310D02*
X96284Y26279D01*
X96065Y26188D01*
X95876Y26044D01*
X95732Y25855D01*
X95641Y25636D01*
X95610Y25400D01*
X95641Y25164D01*
X95732Y24945D01*
X95876Y24756D01*
X96065Y24612D01*
X96284Y24521D01*
X96520Y24490D01*
X96756Y24521D01*
X96975Y24612D01*
X97164Y24756D01*
X97308Y24945D01*
X97399Y25164D01*
X97430Y25400D01*
X97399Y25636D01*
X97308Y25855D01*
X97164Y26044D01*
X96975Y26188D01*
X96756Y26279D01*
X96520Y26310D01*
D02*
G37*
G36*
X93980D02*
X93744Y26279D01*
X93525Y26188D01*
X93336Y26044D01*
X93192Y25855D01*
X93101Y25636D01*
X93070Y25400D01*
X93101Y25164D01*
X93192Y24945D01*
X93336Y24756D01*
X93525Y24612D01*
X93744Y24521D01*
X93980Y24490D01*
X94216Y24521D01*
X94435Y24612D01*
X94624Y24756D01*
X94768Y24945D01*
X94859Y25164D01*
X94890Y25400D01*
X94859Y25636D01*
X94768Y25855D01*
X94624Y26044D01*
X94435Y26188D01*
X94216Y26279D01*
X93980Y26310D01*
D02*
G37*
G36*
X61890Y25750D02*
X61517Y25701D01*
X61170Y25557D01*
X60872Y25328D01*
X60643Y25030D01*
X60499Y24683D01*
X60450Y24310D01*
X60499Y23937D01*
X60643Y23590D01*
X60872Y23292D01*
X61170Y23063D01*
X61517Y22919D01*
X61890Y22870D01*
X62263Y22919D01*
X62610Y23063D01*
X62908Y23292D01*
X63137Y23590D01*
X63281Y23937D01*
X63330Y24310D01*
X63281Y24683D01*
X63137Y25030D01*
X62908Y25328D01*
X62610Y25557D01*
X62263Y25701D01*
X61890Y25750D01*
D02*
G37*
G36*
X96520Y23770D02*
X96284Y23739D01*
X96065Y23648D01*
X95876Y23504D01*
X95732Y23315D01*
X95641Y23096D01*
X95610Y22860D01*
X95641Y22624D01*
X95732Y22405D01*
X95876Y22216D01*
X96065Y22072D01*
X96284Y21981D01*
X96520Y21950D01*
X96756Y21981D01*
X96975Y22072D01*
X97164Y22216D01*
X97308Y22405D01*
X97399Y22624D01*
X97430Y22860D01*
X97399Y23096D01*
X97308Y23315D01*
X97164Y23504D01*
X96975Y23648D01*
X96756Y23739D01*
X96520Y23770D01*
D02*
G37*
G36*
X93980D02*
X93744Y23739D01*
X93525Y23648D01*
X93336Y23504D01*
X93192Y23315D01*
X93101Y23096D01*
X93070Y22860D01*
X93101Y22624D01*
X93192Y22405D01*
X93336Y22216D01*
X93525Y22072D01*
X93744Y21981D01*
X93980Y21950D01*
X94216Y21981D01*
X94435Y22072D01*
X94624Y22216D01*
X94768Y22405D01*
X94859Y22624D01*
X94890Y22860D01*
X94859Y23096D01*
X94768Y23315D01*
X94624Y23504D01*
X94435Y23648D01*
X94216Y23739D01*
X93980Y23770D01*
D02*
G37*
G36*
X57764Y22724D02*
X56937D01*
Y21897D01*
X57764D01*
Y22724D01*
D02*
G37*
G36*
X56683D02*
X55856D01*
Y21897D01*
X56683D01*
Y22724D01*
D02*
G37*
G36*
X46890Y22914D02*
X46655Y22883D01*
X46435Y22792D01*
X46246Y22648D01*
X46102Y22459D01*
X46011Y22240D01*
X45980Y22004D01*
X46011Y21769D01*
X46102Y21549D01*
X46246Y21361D01*
X46435Y21216D01*
X46655Y21125D01*
X46890Y21094D01*
X47126Y21125D01*
X47345Y21216D01*
X47534Y21361D01*
X47678Y21549D01*
X47769Y21769D01*
X47800Y22004D01*
X47769Y22240D01*
X47678Y22459D01*
X47534Y22648D01*
X47345Y22792D01*
X47126Y22883D01*
X46890Y22914D01*
D02*
G37*
G36*
X57764Y21643D02*
X56937D01*
Y20816D01*
X57764D01*
Y21643D01*
D02*
G37*
G36*
X56683D02*
X55856D01*
Y20816D01*
X56683D01*
Y21643D01*
D02*
G37*
G36*
X96520Y21230D02*
X96284Y21199D01*
X96065Y21108D01*
X95876Y20964D01*
X95732Y20775D01*
X95641Y20556D01*
X95610Y20320D01*
X95641Y20084D01*
X95732Y19865D01*
X95876Y19676D01*
X96065Y19532D01*
X96284Y19441D01*
X96520Y19410D01*
X96756Y19441D01*
X96975Y19532D01*
X97164Y19676D01*
X97308Y19865D01*
X97399Y20084D01*
X97430Y20320D01*
X97399Y20556D01*
X97308Y20775D01*
X97164Y20964D01*
X96975Y21108D01*
X96756Y21199D01*
X96520Y21230D01*
D02*
G37*
G36*
X93980D02*
X93744Y21199D01*
X93525Y21108D01*
X93336Y20964D01*
X93192Y20775D01*
X93101Y20556D01*
X93070Y20320D01*
X93101Y20084D01*
X93192Y19865D01*
X93336Y19676D01*
X93525Y19532D01*
X93744Y19441D01*
X93980Y19410D01*
X94216Y19441D01*
X94435Y19532D01*
X94624Y19676D01*
X94768Y19865D01*
X94859Y20084D01*
X94890Y20320D01*
X94859Y20556D01*
X94768Y20775D01*
X94624Y20964D01*
X94435Y21108D01*
X94216Y21199D01*
X93980Y21230D01*
D02*
G37*
G36*
X50792Y21180D02*
X48988D01*
Y19375D01*
X50792D01*
Y21180D01*
D02*
G37*
G36*
X56810Y20090D02*
X56588Y20061D01*
X56380Y19975D01*
X56202Y19838D01*
X56066Y19660D01*
X55980Y19453D01*
X55950Y19230D01*
X55980Y19008D01*
X56066Y18800D01*
X56202Y18622D01*
X56380Y18485D01*
X56588Y18400D01*
X56810Y18370D01*
X57033Y18400D01*
X57240Y18485D01*
X57418Y18622D01*
X57555Y18800D01*
X57641Y19008D01*
X57670Y19230D01*
X57641Y19453D01*
X57555Y19660D01*
X57418Y19838D01*
X57240Y19975D01*
X57033Y20061D01*
X56810Y20090D01*
D02*
G37*
G36*
X50017Y18733D02*
Y17865D01*
X50886D01*
X50868Y18000D01*
X50767Y18244D01*
X50606Y18454D01*
X50396Y18615D01*
X50152Y18716D01*
X50017Y18733D01*
D02*
G37*
G36*
X49763D02*
X49628Y18716D01*
X49384Y18615D01*
X49174Y18454D01*
X49013Y18244D01*
X48912Y18000D01*
X48894Y17865D01*
X49763D01*
Y18733D01*
D02*
G37*
G36*
X96520Y18690D02*
X96284Y18659D01*
X96065Y18568D01*
X95876Y18424D01*
X95732Y18235D01*
X95641Y18016D01*
X95610Y17780D01*
X95641Y17544D01*
X95732Y17325D01*
X95876Y17136D01*
X96065Y16992D01*
X96284Y16901D01*
X96520Y16870D01*
X96756Y16901D01*
X96975Y16992D01*
X97164Y17136D01*
X97308Y17325D01*
X97399Y17544D01*
X97430Y17780D01*
X97399Y18016D01*
X97308Y18235D01*
X97164Y18424D01*
X96975Y18568D01*
X96756Y18659D01*
X96520Y18690D01*
D02*
G37*
G36*
X93980D02*
X93744Y18659D01*
X93525Y18568D01*
X93336Y18424D01*
X93192Y18235D01*
X93101Y18016D01*
X93070Y17780D01*
X93101Y17544D01*
X93192Y17325D01*
X93336Y17136D01*
X93525Y16992D01*
X93744Y16901D01*
X93980Y16870D01*
X94216Y16901D01*
X94435Y16992D01*
X94624Y17136D01*
X94768Y17325D01*
X94859Y17544D01*
X94890Y17780D01*
X94859Y18016D01*
X94768Y18235D01*
X94624Y18424D01*
X94435Y18568D01*
X94216Y18659D01*
X93980Y18690D01*
D02*
G37*
G36*
X50886Y17611D02*
X50017D01*
Y16742D01*
X50152Y16759D01*
X50396Y16861D01*
X50606Y17021D01*
X50767Y17231D01*
X50868Y17475D01*
X50886Y17611D01*
D02*
G37*
G36*
X49763D02*
X48894D01*
X48912Y17475D01*
X49013Y17231D01*
X49174Y17021D01*
X49384Y16861D01*
X49628Y16759D01*
X49763Y16742D01*
Y17611D01*
D02*
G37*
G36*
X96520Y16150D02*
X96284Y16119D01*
X96065Y16028D01*
X95876Y15884D01*
X95732Y15695D01*
X95641Y15476D01*
X95610Y15240D01*
X95641Y15004D01*
X95732Y14785D01*
X95876Y14596D01*
X96065Y14452D01*
X96284Y14361D01*
X96520Y14330D01*
X96756Y14361D01*
X96975Y14452D01*
X97164Y14596D01*
X97308Y14785D01*
X97399Y15004D01*
X97430Y15240D01*
X97399Y15476D01*
X97308Y15695D01*
X97164Y15884D01*
X96975Y16028D01*
X96756Y16119D01*
X96520Y16150D01*
D02*
G37*
G36*
X93980D02*
X93744Y16119D01*
X93525Y16028D01*
X93336Y15884D01*
X93192Y15695D01*
X93101Y15476D01*
X93070Y15240D01*
X93101Y15004D01*
X93192Y14785D01*
X93336Y14596D01*
X93525Y14452D01*
X93744Y14361D01*
X93980Y14330D01*
X94216Y14361D01*
X94435Y14452D01*
X94624Y14596D01*
X94768Y14785D01*
X94859Y15004D01*
X94890Y15240D01*
X94859Y15476D01*
X94768Y15695D01*
X94624Y15884D01*
X94435Y16028D01*
X94216Y16119D01*
X93980Y16150D01*
D02*
G37*
G36*
X61890Y15590D02*
X61517Y15541D01*
X61170Y15397D01*
X60872Y15168D01*
X60643Y14870D01*
X60499Y14523D01*
X60450Y14150D01*
X60499Y13777D01*
X60643Y13430D01*
X60872Y13132D01*
X61170Y12903D01*
X61517Y12759D01*
X61890Y12710D01*
X62263Y12759D01*
X62610Y12903D01*
X62908Y13132D01*
X63137Y13430D01*
X63281Y13777D01*
X63330Y14150D01*
X63281Y14523D01*
X63137Y14870D01*
X62908Y15168D01*
X62610Y15397D01*
X62263Y15541D01*
X61890Y15590D01*
D02*
G37*
G36*
X96520Y13610D02*
X96284Y13579D01*
X96065Y13488D01*
X95876Y13344D01*
X95732Y13155D01*
X95641Y12936D01*
X95610Y12700D01*
X95641Y12464D01*
X95732Y12245D01*
X95876Y12056D01*
X96065Y11912D01*
X96284Y11821D01*
X96520Y11790D01*
X96756Y11821D01*
X96975Y11912D01*
X97164Y12056D01*
X97308Y12245D01*
X97399Y12464D01*
X97430Y12700D01*
X97399Y12936D01*
X97308Y13155D01*
X97164Y13344D01*
X96975Y13488D01*
X96756Y13579D01*
X96520Y13610D01*
D02*
G37*
G36*
X93980D02*
X93744Y13579D01*
X93525Y13488D01*
X93336Y13344D01*
X93192Y13155D01*
X93101Y12936D01*
X93070Y12700D01*
X93101Y12464D01*
X93192Y12245D01*
X93336Y12056D01*
X93525Y11912D01*
X93744Y11821D01*
X93980Y11790D01*
X94216Y11821D01*
X94435Y11912D01*
X94624Y12056D01*
X94768Y12245D01*
X94859Y12464D01*
X94890Y12700D01*
X94859Y12936D01*
X94768Y13155D01*
X94624Y13344D01*
X94435Y13488D01*
X94216Y13579D01*
X93980Y13610D01*
D02*
G37*
G36*
X96520Y11070D02*
X96284Y11039D01*
X96065Y10948D01*
X95876Y10804D01*
X95732Y10615D01*
X95641Y10396D01*
X95610Y10160D01*
X95641Y9924D01*
X95732Y9705D01*
X95876Y9516D01*
X96065Y9372D01*
X96284Y9281D01*
X96520Y9250D01*
X96756Y9281D01*
X96975Y9372D01*
X97164Y9516D01*
X97308Y9705D01*
X97399Y9924D01*
X97430Y10160D01*
X97399Y10396D01*
X97308Y10615D01*
X97164Y10804D01*
X96975Y10948D01*
X96756Y11039D01*
X96520Y11070D01*
D02*
G37*
G36*
X93980D02*
X93744Y11039D01*
X93525Y10948D01*
X93336Y10804D01*
X93192Y10615D01*
X93101Y10396D01*
X93070Y10160D01*
X93101Y9924D01*
X93192Y9705D01*
X93336Y9516D01*
X93525Y9372D01*
X93744Y9281D01*
X93980Y9250D01*
X94216Y9281D01*
X94435Y9372D01*
X94624Y9516D01*
X94768Y9705D01*
X94859Y9924D01*
X94890Y10160D01*
X94859Y10396D01*
X94768Y10615D01*
X94624Y10804D01*
X94435Y10948D01*
X94216Y11039D01*
X93980Y11070D01*
D02*
G37*
G36*
X88127Y8996D02*
Y8127D01*
X88996D01*
X88978Y8262D01*
X88877Y8506D01*
X88716Y8716D01*
X88506Y8877D01*
X88262Y8978D01*
X88127Y8996D01*
D02*
G37*
G36*
X87873D02*
X87738Y8978D01*
X87494Y8877D01*
X87284Y8716D01*
X87123Y8506D01*
X87022Y8262D01*
X87004Y8127D01*
X87873D01*
Y8996D01*
D02*
G37*
G36*
X96647Y8616D02*
Y7747D01*
X97516D01*
X97498Y7882D01*
X97397Y8126D01*
X97236Y8336D01*
X97026Y8497D01*
X96782Y8598D01*
X96647Y8616D01*
D02*
G37*
G36*
X94107D02*
Y7747D01*
X94976D01*
X94958Y7882D01*
X94857Y8126D01*
X94696Y8336D01*
X94486Y8497D01*
X94242Y8598D01*
X94107Y8616D01*
D02*
G37*
G36*
X96393D02*
X96258Y8598D01*
X96014Y8497D01*
X95804Y8336D01*
X95643Y8126D01*
X95542Y7882D01*
X95524Y7747D01*
X96393D01*
Y8616D01*
D02*
G37*
G36*
X93853D02*
X93718Y8598D01*
X93474Y8497D01*
X93264Y8336D01*
X93103Y8126D01*
X93002Y7882D01*
X92984Y7747D01*
X93853D01*
Y8616D01*
D02*
G37*
G36*
X88996Y7873D02*
X88127D01*
Y7004D01*
X88262Y7022D01*
X88506Y7123D01*
X88716Y7284D01*
X88877Y7494D01*
X88978Y7738D01*
X88996Y7873D01*
D02*
G37*
G36*
X87873D02*
X87004D01*
X87022Y7738D01*
X87123Y7494D01*
X87284Y7284D01*
X87494Y7123D01*
X87738Y7022D01*
X87873Y7004D01*
Y7873D01*
D02*
G37*
G36*
X97516Y7493D02*
X96647D01*
Y6624D01*
X96782Y6642D01*
X97026Y6743D01*
X97236Y6904D01*
X97397Y7114D01*
X97498Y7358D01*
X97516Y7493D01*
D02*
G37*
G36*
X94976D02*
X94107D01*
Y6624D01*
X94242Y6642D01*
X94486Y6743D01*
X94696Y6904D01*
X94857Y7114D01*
X94958Y7358D01*
X94976Y7493D01*
D02*
G37*
G36*
X93853D02*
X92984D01*
X93002Y7358D01*
X93103Y7114D01*
X93264Y6904D01*
X93474Y6743D01*
X93718Y6642D01*
X93853Y6624D01*
Y7493D01*
D02*
G37*
G36*
X96393D02*
X95524D01*
X95542Y7358D01*
X95643Y7114D01*
X95804Y6904D01*
X96014Y6743D01*
X96258Y6642D01*
X96393Y6624D01*
Y7493D01*
D02*
G37*
G36*
X66040Y9381D02*
X65696Y9347D01*
X65366Y9247D01*
X65062Y9084D01*
X64795Y8865D01*
X64576Y8598D01*
X64413Y8294D01*
X64313Y7964D01*
X64279Y7620D01*
X64313Y7276D01*
X64413Y6946D01*
X64576Y6642D01*
X64795Y6375D01*
X65062Y6156D01*
X65366Y5993D01*
X65696Y5893D01*
X66040Y5859D01*
X66384Y5893D01*
X66714Y5993D01*
X67018Y6156D01*
X67285Y6375D01*
X67504Y6642D01*
X67667Y6946D01*
X67767Y7276D01*
X67801Y7620D01*
X67767Y7964D01*
X67667Y8294D01*
X67504Y8598D01*
X67285Y8865D01*
X67018Y9084D01*
X66714Y9247D01*
X66384Y9347D01*
X66040Y9381D01*
D02*
G37*
G36*
X6127Y4806D02*
Y3937D01*
X6996D01*
X6978Y4072D01*
X6877Y4316D01*
X6716Y4526D01*
X6506Y4687D01*
X6262Y4788D01*
X6127Y4806D01*
D02*
G37*
G36*
X5873D02*
X5738Y4788D01*
X5494Y4687D01*
X5284Y4526D01*
X5123Y4316D01*
X5022Y4072D01*
X5004Y3937D01*
X5873D01*
Y4806D01*
D02*
G37*
G36*
X6996Y3683D02*
X6127D01*
Y2814D01*
X6262Y2832D01*
X6506Y2933D01*
X6716Y3094D01*
X6877Y3304D01*
X6978Y3548D01*
X6996Y3683D01*
D02*
G37*
G36*
X5873D02*
X5004D01*
X5022Y3548D01*
X5123Y3304D01*
X5284Y3094D01*
X5494Y2933D01*
X5738Y2832D01*
X5873Y2814D01*
Y3683D01*
D02*
G37*
G36*
X43307Y3536D02*
Y2667D01*
X44176D01*
X44158Y2802D01*
X44057Y3046D01*
X43896Y3256D01*
X43686Y3417D01*
X43442Y3518D01*
X43307Y3536D01*
D02*
G37*
G36*
X40767D02*
Y2667D01*
X41636D01*
X41618Y2802D01*
X41517Y3046D01*
X41356Y3256D01*
X41146Y3417D01*
X40902Y3518D01*
X40767Y3536D01*
D02*
G37*
G36*
X43053D02*
X42918Y3518D01*
X42674Y3417D01*
X42464Y3256D01*
X42303Y3046D01*
X42202Y2802D01*
X42184Y2667D01*
X43053D01*
Y3536D01*
D02*
G37*
G36*
X74562Y3442D02*
X72758D01*
Y1638D01*
X74562D01*
Y3442D01*
D02*
G37*
G36*
X51702D02*
X49898D01*
Y1638D01*
X51702D01*
Y3442D01*
D02*
G37*
G36*
X46622D02*
X44818D01*
Y1638D01*
X46622D01*
Y3442D01*
D02*
G37*
G36*
X91440Y3450D02*
X91204Y3419D01*
X90985Y3328D01*
X90796Y3184D01*
X90652Y2995D01*
X90561Y2776D01*
X90530Y2540D01*
X90561Y2304D01*
X90652Y2085D01*
X90796Y1896D01*
X90985Y1752D01*
X91204Y1661D01*
X91440Y1630D01*
X91676Y1661D01*
X91895Y1752D01*
X92084Y1896D01*
X92228Y2085D01*
X92319Y2304D01*
X92350Y2540D01*
X92319Y2776D01*
X92228Y2995D01*
X92084Y3184D01*
X91895Y3328D01*
X91676Y3419D01*
X91440Y3450D01*
D02*
G37*
G36*
X88900D02*
X88664Y3419D01*
X88445Y3328D01*
X88256Y3184D01*
X88112Y2995D01*
X88021Y2776D01*
X87990Y2540D01*
X88021Y2304D01*
X88112Y2085D01*
X88256Y1896D01*
X88445Y1752D01*
X88664Y1661D01*
X88900Y1630D01*
X89136Y1661D01*
X89355Y1752D01*
X89544Y1896D01*
X89688Y2085D01*
X89779Y2304D01*
X89810Y2540D01*
X89779Y2776D01*
X89688Y2995D01*
X89544Y3184D01*
X89355Y3328D01*
X89136Y3419D01*
X88900Y3450D01*
D02*
G37*
G36*
X86360D02*
X86124Y3419D01*
X85905Y3328D01*
X85716Y3184D01*
X85572Y2995D01*
X85481Y2776D01*
X85450Y2540D01*
X85481Y2304D01*
X85572Y2085D01*
X85716Y1896D01*
X85905Y1752D01*
X86124Y1661D01*
X86360Y1630D01*
X86596Y1661D01*
X86815Y1752D01*
X87004Y1896D01*
X87148Y2085D01*
X87239Y2304D01*
X87270Y2540D01*
X87239Y2776D01*
X87148Y2995D01*
X87004Y3184D01*
X86815Y3328D01*
X86596Y3419D01*
X86360Y3450D01*
D02*
G37*
G36*
X83820D02*
X83584Y3419D01*
X83365Y3328D01*
X83176Y3184D01*
X83032Y2995D01*
X82941Y2776D01*
X82910Y2540D01*
X82941Y2304D01*
X83032Y2085D01*
X83176Y1896D01*
X83365Y1752D01*
X83584Y1661D01*
X83820Y1630D01*
X84056Y1661D01*
X84275Y1752D01*
X84464Y1896D01*
X84608Y2085D01*
X84699Y2304D01*
X84730Y2540D01*
X84699Y2776D01*
X84608Y2995D01*
X84464Y3184D01*
X84275Y3328D01*
X84056Y3419D01*
X83820Y3450D01*
D02*
G37*
G36*
X81280D02*
X81044Y3419D01*
X80825Y3328D01*
X80636Y3184D01*
X80492Y2995D01*
X80401Y2776D01*
X80370Y2540D01*
X80401Y2304D01*
X80492Y2085D01*
X80636Y1896D01*
X80825Y1752D01*
X81044Y1661D01*
X81280Y1630D01*
X81516Y1661D01*
X81735Y1752D01*
X81924Y1896D01*
X82068Y2085D01*
X82159Y2304D01*
X82190Y2540D01*
X82159Y2776D01*
X82068Y2995D01*
X81924Y3184D01*
X81735Y3328D01*
X81516Y3419D01*
X81280Y3450D01*
D02*
G37*
G36*
X78740D02*
X78504Y3419D01*
X78285Y3328D01*
X78096Y3184D01*
X77952Y2995D01*
X77861Y2776D01*
X77830Y2540D01*
X77861Y2304D01*
X77952Y2085D01*
X78096Y1896D01*
X78285Y1752D01*
X78504Y1661D01*
X78740Y1630D01*
X78976Y1661D01*
X79195Y1752D01*
X79384Y1896D01*
X79528Y2085D01*
X79619Y2304D01*
X79650Y2540D01*
X79619Y2776D01*
X79528Y2995D01*
X79384Y3184D01*
X79195Y3328D01*
X78976Y3419D01*
X78740Y3450D01*
D02*
G37*
G36*
X76200D02*
X75964Y3419D01*
X75745Y3328D01*
X75556Y3184D01*
X75412Y2995D01*
X75321Y2776D01*
X75290Y2540D01*
X75321Y2304D01*
X75412Y2085D01*
X75556Y1896D01*
X75745Y1752D01*
X75964Y1661D01*
X76200Y1630D01*
X76436Y1661D01*
X76655Y1752D01*
X76844Y1896D01*
X76988Y2085D01*
X77079Y2304D01*
X77110Y2540D01*
X77079Y2776D01*
X76988Y2995D01*
X76844Y3184D01*
X76655Y3328D01*
X76436Y3419D01*
X76200Y3450D01*
D02*
G37*
G36*
X68580D02*
X68344Y3419D01*
X68125Y3328D01*
X67936Y3184D01*
X67792Y2995D01*
X67701Y2776D01*
X67670Y2540D01*
X67701Y2304D01*
X67792Y2085D01*
X67936Y1896D01*
X68125Y1752D01*
X68344Y1661D01*
X68580Y1630D01*
X68816Y1661D01*
X69035Y1752D01*
X69224Y1896D01*
X69368Y2085D01*
X69459Y2304D01*
X69490Y2540D01*
X69459Y2776D01*
X69368Y2995D01*
X69224Y3184D01*
X69035Y3328D01*
X68816Y3419D01*
X68580Y3450D01*
D02*
G37*
G36*
X66040D02*
X65804Y3419D01*
X65585Y3328D01*
X65396Y3184D01*
X65252Y2995D01*
X65161Y2776D01*
X65130Y2540D01*
X65161Y2304D01*
X65252Y2085D01*
X65396Y1896D01*
X65585Y1752D01*
X65804Y1661D01*
X66040Y1630D01*
X66276Y1661D01*
X66495Y1752D01*
X66684Y1896D01*
X66828Y2085D01*
X66919Y2304D01*
X66950Y2540D01*
X66919Y2776D01*
X66828Y2995D01*
X66684Y3184D01*
X66495Y3328D01*
X66276Y3419D01*
X66040Y3450D01*
D02*
G37*
G36*
X63500D02*
X63264Y3419D01*
X63045Y3328D01*
X62856Y3184D01*
X62712Y2995D01*
X62621Y2776D01*
X62590Y2540D01*
X62621Y2304D01*
X62712Y2085D01*
X62856Y1896D01*
X63045Y1752D01*
X63264Y1661D01*
X63500Y1630D01*
X63736Y1661D01*
X63955Y1752D01*
X64144Y1896D01*
X64288Y2085D01*
X64379Y2304D01*
X64410Y2540D01*
X64379Y2776D01*
X64288Y2995D01*
X64144Y3184D01*
X63955Y3328D01*
X63736Y3419D01*
X63500Y3450D01*
D02*
G37*
G36*
X60960D02*
X60724Y3419D01*
X60505Y3328D01*
X60316Y3184D01*
X60172Y2995D01*
X60081Y2776D01*
X60050Y2540D01*
X60081Y2304D01*
X60172Y2085D01*
X60316Y1896D01*
X60505Y1752D01*
X60724Y1661D01*
X60960Y1630D01*
X61196Y1661D01*
X61415Y1752D01*
X61604Y1896D01*
X61748Y2085D01*
X61839Y2304D01*
X61870Y2540D01*
X61839Y2776D01*
X61748Y2995D01*
X61604Y3184D01*
X61415Y3328D01*
X61196Y3419D01*
X60960Y3450D01*
D02*
G37*
G36*
X58420D02*
X58184Y3419D01*
X57965Y3328D01*
X57776Y3184D01*
X57632Y2995D01*
X57541Y2776D01*
X57510Y2540D01*
X57541Y2304D01*
X57632Y2085D01*
X57776Y1896D01*
X57965Y1752D01*
X58184Y1661D01*
X58420Y1630D01*
X58656Y1661D01*
X58875Y1752D01*
X59064Y1896D01*
X59208Y2085D01*
X59299Y2304D01*
X59330Y2540D01*
X59299Y2776D01*
X59208Y2995D01*
X59064Y3184D01*
X58875Y3328D01*
X58656Y3419D01*
X58420Y3450D01*
D02*
G37*
G36*
X55880D02*
X55644Y3419D01*
X55425Y3328D01*
X55236Y3184D01*
X55092Y2995D01*
X55001Y2776D01*
X54970Y2540D01*
X55001Y2304D01*
X55092Y2085D01*
X55236Y1896D01*
X55425Y1752D01*
X55644Y1661D01*
X55880Y1630D01*
X56116Y1661D01*
X56335Y1752D01*
X56524Y1896D01*
X56668Y2085D01*
X56759Y2304D01*
X56790Y2540D01*
X56759Y2776D01*
X56668Y2995D01*
X56524Y3184D01*
X56335Y3328D01*
X56116Y3419D01*
X55880Y3450D01*
D02*
G37*
G36*
X53340D02*
X53104Y3419D01*
X52885Y3328D01*
X52696Y3184D01*
X52552Y2995D01*
X52461Y2776D01*
X52430Y2540D01*
X52461Y2304D01*
X52552Y2085D01*
X52696Y1896D01*
X52885Y1752D01*
X53104Y1661D01*
X53340Y1630D01*
X53576Y1661D01*
X53795Y1752D01*
X53984Y1896D01*
X54128Y2085D01*
X54219Y2304D01*
X54250Y2540D01*
X54219Y2776D01*
X54128Y2995D01*
X53984Y3184D01*
X53795Y3328D01*
X53576Y3419D01*
X53340Y3450D01*
D02*
G37*
G36*
X33020D02*
X32784Y3419D01*
X32565Y3328D01*
X32376Y3184D01*
X32232Y2995D01*
X32141Y2776D01*
X32110Y2540D01*
X32141Y2304D01*
X32232Y2085D01*
X32376Y1896D01*
X32565Y1752D01*
X32784Y1661D01*
X33020Y1630D01*
X33256Y1661D01*
X33475Y1752D01*
X33664Y1896D01*
X33808Y2085D01*
X33899Y2304D01*
X33930Y2540D01*
X33899Y2776D01*
X33808Y2995D01*
X33664Y3184D01*
X33475Y3328D01*
X33256Y3419D01*
X33020Y3450D01*
D02*
G37*
G36*
X30480D02*
X30244Y3419D01*
X30025Y3328D01*
X29836Y3184D01*
X29692Y2995D01*
X29601Y2776D01*
X29570Y2540D01*
X29601Y2304D01*
X29692Y2085D01*
X29836Y1896D01*
X30025Y1752D01*
X30244Y1661D01*
X30480Y1630D01*
X30716Y1661D01*
X30935Y1752D01*
X31124Y1896D01*
X31268Y2085D01*
X31359Y2304D01*
X31390Y2540D01*
X31359Y2776D01*
X31268Y2995D01*
X31124Y3184D01*
X30935Y3328D01*
X30716Y3419D01*
X30480Y3450D01*
D02*
G37*
G36*
X27940D02*
X27704Y3419D01*
X27485Y3328D01*
X27296Y3184D01*
X27152Y2995D01*
X27061Y2776D01*
X27030Y2540D01*
X27061Y2304D01*
X27152Y2085D01*
X27296Y1896D01*
X27485Y1752D01*
X27704Y1661D01*
X27940Y1630D01*
X28176Y1661D01*
X28395Y1752D01*
X28584Y1896D01*
X28728Y2085D01*
X28819Y2304D01*
X28850Y2540D01*
X28819Y2776D01*
X28728Y2995D01*
X28584Y3184D01*
X28395Y3328D01*
X28176Y3419D01*
X27940Y3450D01*
D02*
G37*
G36*
X44176Y2413D02*
X43307D01*
Y1544D01*
X43442Y1562D01*
X43686Y1663D01*
X43896Y1824D01*
X44057Y2034D01*
X44158Y2278D01*
X44176Y2413D01*
D02*
G37*
G36*
X41636D02*
X40767D01*
Y1544D01*
X40902Y1562D01*
X41146Y1663D01*
X41356Y1824D01*
X41517Y2034D01*
X41618Y2278D01*
X41636Y2413D01*
D02*
G37*
G36*
X43053D02*
X42184D01*
X42202Y2278D01*
X42303Y2034D01*
X42464Y1824D01*
X42674Y1663D01*
X42918Y1562D01*
X43053Y1544D01*
Y2413D01*
D02*
G37*
G36*
X96520Y4301D02*
X96176Y4267D01*
X95846Y4167D01*
X95542Y4004D01*
X95275Y3785D01*
X95056Y3518D01*
X94893Y3214D01*
X94793Y2884D01*
X94759Y2540D01*
X94793Y2196D01*
X94893Y1866D01*
X95056Y1562D01*
X95275Y1295D01*
X95542Y1076D01*
X95846Y913D01*
X96176Y813D01*
X96520Y779D01*
X96864Y813D01*
X97194Y913D01*
X97498Y1076D01*
X97765Y1295D01*
X97984Y1562D01*
X98147Y1866D01*
X98247Y2196D01*
X98281Y2540D01*
X98247Y2884D01*
X98147Y3214D01*
X97984Y3518D01*
X97765Y3785D01*
X97498Y4004D01*
X97194Y4167D01*
X96864Y4267D01*
X96520Y4301D01*
D02*
G37*
G36*
X13970D02*
X13626Y4267D01*
X13296Y4167D01*
X12992Y4004D01*
X12725Y3785D01*
X12506Y3518D01*
X12343Y3214D01*
X12243Y2884D01*
X12209Y2540D01*
X12243Y2196D01*
X12343Y1866D01*
X12506Y1562D01*
X12725Y1295D01*
X12992Y1076D01*
X13296Y913D01*
X13626Y813D01*
X13970Y779D01*
X14314Y813D01*
X14644Y913D01*
X14948Y1076D01*
X15215Y1295D01*
X15434Y1562D01*
X15597Y1866D01*
X15697Y2196D01*
X15731Y2540D01*
X15697Y2884D01*
X15597Y3214D01*
X15434Y3518D01*
X15215Y3785D01*
X14948Y4004D01*
X14644Y4167D01*
X14314Y4267D01*
X13970Y4301D01*
D02*
G37*
%LPD*%
G36*
X31160Y47500D02*
X31210Y47479D01*
Y44335D01*
X31202Y44330D01*
X31101Y44178D01*
X31066Y44000D01*
X31101Y43822D01*
X31202Y43670D01*
X31210Y43665D01*
Y41310D01*
X30591Y40691D01*
X27650Y37750D01*
Y31420D01*
X25030Y28800D01*
X23940Y27710D01*
Y23300D01*
X27310Y19930D01*
X33600Y19930D01*
X33600Y12200D01*
X39600Y6200D01*
X39600Y1076D01*
X36590Y1076D01*
X36500Y1166D01*
X36500Y2300D01*
X36446Y2354D01*
X36470Y2540D01*
X36439Y2776D01*
X36348Y2995D01*
X36204Y3184D01*
X36015Y3328D01*
X35796Y3419D01*
X35560Y3450D01*
X35374Y3426D01*
X17400Y21400D01*
Y32208D01*
X26317Y41125D01*
X27750D01*
Y47500D01*
X31160D01*
D02*
G37*
%LPC*%
G36*
X29027Y46745D02*
Y46327D01*
X29445D01*
X29427Y46418D01*
X29303Y46603D01*
X29118Y46727D01*
X29027Y46745D01*
D02*
G37*
G36*
X28773D02*
X28682Y46727D01*
X28497Y46603D01*
X28373Y46418D01*
X28355Y46327D01*
X28773D01*
Y46745D01*
D02*
G37*
G36*
X29445Y46073D02*
X29027D01*
Y45655D01*
X29118Y45673D01*
X29303Y45797D01*
X29427Y45982D01*
X29445Y46073D01*
D02*
G37*
G36*
X28773D02*
X28355D01*
X28373Y45982D01*
X28497Y45797D01*
X28682Y45673D01*
X28773Y45655D01*
Y46073D01*
D02*
G37*
G36*
X30159Y45926D02*
Y45508D01*
X30577D01*
X30558Y45599D01*
X30435Y45784D01*
X30250Y45908D01*
X30159Y45926D01*
D02*
G37*
G36*
X29905D02*
X29814Y45908D01*
X29629Y45784D01*
X29505Y45599D01*
X29487Y45508D01*
X29905D01*
Y45926D01*
D02*
G37*
G36*
X30577Y45254D02*
X30159D01*
Y44836D01*
X30250Y44854D01*
X30435Y44978D01*
X30558Y45163D01*
X30577Y45254D01*
D02*
G37*
G36*
X29905D02*
X29487D01*
X29505Y45163D01*
X29629Y44978D01*
X29814Y44854D01*
X29905Y44836D01*
Y45254D01*
D02*
G37*
G36*
X30317Y43045D02*
Y42627D01*
X30735D01*
X30717Y42718D01*
X30593Y42903D01*
X30408Y43027D01*
X30317Y43045D01*
D02*
G37*
G36*
X30063D02*
X29972Y43027D01*
X29787Y42903D01*
X29663Y42718D01*
X29645Y42627D01*
X30063D01*
Y43045D01*
D02*
G37*
G36*
X28844Y42545D02*
Y42127D01*
X29262D01*
X29244Y42218D01*
X29120Y42403D01*
X28935Y42527D01*
X28844Y42545D01*
D02*
G37*
G36*
X28590D02*
X28499Y42527D01*
X28314Y42403D01*
X28191Y42218D01*
X28173Y42127D01*
X28590D01*
Y42545D01*
D02*
G37*
G36*
X30735Y42373D02*
X30317D01*
Y41955D01*
X30408Y41973D01*
X30593Y42097D01*
X30717Y42282D01*
X30735Y42373D01*
D02*
G37*
G36*
X30063D02*
X29645D01*
X29663Y42282D01*
X29787Y42097D01*
X29972Y41973D01*
X30063Y41955D01*
Y42373D01*
D02*
G37*
G36*
X29262Y41873D02*
X28844D01*
Y41455D01*
X28935Y41473D01*
X29120Y41597D01*
X29244Y41782D01*
X29262Y41873D01*
D02*
G37*
G36*
X28590D02*
X28173D01*
X28191Y41782D01*
X28314Y41597D01*
X28499Y41473D01*
X28590Y41455D01*
Y41873D01*
D02*
G37*
G36*
X26487Y36996D02*
Y36127D01*
X27356D01*
X27338Y36262D01*
X27237Y36506D01*
X27076Y36716D01*
X26866Y36877D01*
X26622Y36978D01*
X26487Y36996D01*
D02*
G37*
G36*
X26233D02*
X26098Y36978D01*
X25854Y36877D01*
X25644Y36716D01*
X25483Y36506D01*
X25382Y36262D01*
X25364Y36127D01*
X26233D01*
Y36996D01*
D02*
G37*
G36*
X27356Y35873D02*
X26487D01*
Y35004D01*
X26622Y35022D01*
X26866Y35123D01*
X27076Y35284D01*
X27237Y35494D01*
X27338Y35738D01*
X27356Y35873D01*
D02*
G37*
G36*
X26233D02*
X25364D01*
X25382Y35738D01*
X25483Y35494D01*
X25644Y35284D01*
X25854Y35123D01*
X26098Y35022D01*
X26233Y35004D01*
Y35873D01*
D02*
G37*
G36*
X27262Y34362D02*
X25458D01*
Y32558D01*
X27262D01*
Y34362D01*
D02*
G37*
G36*
X22697Y26996D02*
Y26127D01*
X23566D01*
X23548Y26262D01*
X23447Y26506D01*
X23286Y26716D01*
X23076Y26877D01*
X22832Y26978D01*
X22697Y26996D01*
D02*
G37*
G36*
X22443D02*
X22308Y26978D01*
X22064Y26877D01*
X21854Y26716D01*
X21693Y26506D01*
X21592Y26262D01*
X21574Y26127D01*
X22443D01*
Y26996D01*
D02*
G37*
G36*
X20932Y26902D02*
X19128D01*
Y25098D01*
X20932D01*
Y26902D01*
D02*
G37*
G36*
X23566Y25873D02*
X22697D01*
Y25004D01*
X22832Y25022D01*
X23076Y25123D01*
X23286Y25284D01*
X23447Y25494D01*
X23548Y25738D01*
X23566Y25873D01*
D02*
G37*
G36*
X22443D02*
X21574D01*
X21592Y25738D01*
X21693Y25494D01*
X21854Y25284D01*
X22064Y25123D01*
X22308Y25022D01*
X22443Y25004D01*
Y25873D01*
D02*
G37*
G36*
X32604Y19288D02*
X31727D01*
Y18411D01*
X32604D01*
Y19288D01*
D02*
G37*
G36*
X31473D02*
X30596D01*
Y18411D01*
X31473D01*
Y19288D01*
D02*
G37*
G36*
X32604Y18157D02*
X31727D01*
Y17280D01*
X32604D01*
Y18157D01*
D02*
G37*
G36*
X31473D02*
X30596D01*
Y17280D01*
X31473D01*
Y18157D01*
D02*
G37*
G36*
X31600Y16654D02*
X31364Y16623D01*
X31145Y16532D01*
X30956Y16388D01*
X30812Y16199D01*
X30721Y15980D01*
X30690Y15744D01*
X30721Y15509D01*
X30812Y15289D01*
X30956Y15100D01*
X31145Y14956D01*
X31364Y14865D01*
X31600Y14834D01*
X31836Y14865D01*
X32055Y14956D01*
X32244Y15100D01*
X32388Y15289D01*
X32479Y15509D01*
X32510Y15744D01*
X32479Y15980D01*
X32388Y16199D01*
X32244Y16388D01*
X32055Y16532D01*
X31836Y16623D01*
X31600Y16654D01*
D02*
G37*
G36*
X34576Y7110D02*
X34341Y7079D01*
X34121Y6988D01*
X33933Y6844D01*
X33788Y6655D01*
X33697Y6436D01*
X33666Y6200D01*
X33697Y5964D01*
X33788Y5745D01*
X33933Y5556D01*
X34121Y5412D01*
X34341Y5321D01*
X34576Y5290D01*
X34812Y5321D01*
X35031Y5412D01*
X35220Y5556D01*
X35365Y5745D01*
X35456Y5964D01*
X35487Y6200D01*
X35456Y6436D01*
X35365Y6655D01*
X35220Y6844D01*
X35031Y6988D01*
X34812Y7079D01*
X34576Y7110D01*
D02*
G37*
G36*
X38227Y3536D02*
Y2667D01*
X39096D01*
X39078Y2802D01*
X38977Y3046D01*
X38816Y3256D01*
X38606Y3417D01*
X38362Y3518D01*
X38227Y3536D01*
D02*
G37*
G36*
X37973D02*
X37838Y3518D01*
X37594Y3417D01*
X37384Y3256D01*
X37223Y3046D01*
X37122Y2802D01*
X37104Y2667D01*
X37973D01*
Y3536D01*
D02*
G37*
G36*
X39096Y2413D02*
X38227D01*
Y1544D01*
X38362Y1562D01*
X38606Y1663D01*
X38816Y1824D01*
X38977Y2034D01*
X39078Y2278D01*
X39096Y2413D01*
D02*
G37*
G36*
X37973D02*
X37104D01*
X37122Y2278D01*
X37223Y2034D01*
X37384Y1824D01*
X37594Y1663D01*
X37838Y1562D01*
X37973Y1544D01*
Y2413D01*
D02*
G37*
%LPD*%
D13*
X70700Y40300D02*
X78740Y48340D01*
X49352Y40300D02*
X70700D01*
X78740Y48340D02*
Y50800D01*
X30032Y45381D02*
X41449D01*
X43900Y47832D01*
X51245Y42195D02*
X58420Y49370D01*
X50345Y42850D02*
X55880Y48385D01*
X48620Y42195D02*
X51245D01*
X55880Y48385D02*
Y50800D01*
X58420Y49370D02*
Y50800D01*
D44*
X46890Y22004D02*
D03*
X34576Y6200D02*
D03*
X49890Y17738D02*
D03*
X31600Y15744D02*
D03*
X25110Y26000D02*
D03*
X22570D02*
D03*
X27650D02*
D03*
X37810D02*
D03*
X35270D02*
D03*
X32730D02*
D03*
X30190D02*
D03*
X40350D02*
D03*
X42890D02*
D03*
X6000Y3810D02*
D03*
X4000Y50000D02*
D03*
X88000Y8000D02*
D03*
Y46000D02*
D03*
X28900Y33460D02*
D03*
X26360Y36000D02*
D03*
X28900D02*
D03*
X36520Y33460D02*
D03*
X31440D02*
D03*
X33980D02*
D03*
X31440Y36000D02*
D03*
X36520D02*
D03*
X33980D02*
D03*
X40640Y2540D02*
D03*
X43180D02*
D03*
X27940D02*
D03*
X30480D02*
D03*
X33020D02*
D03*
X35560D02*
D03*
X38100D02*
D03*
X96520Y50800D02*
D03*
X93980D02*
D03*
X96520Y48260D02*
D03*
X93980D02*
D03*
X96520Y45720D02*
D03*
X93980D02*
D03*
X96520Y43180D02*
D03*
X93980D02*
D03*
X96520Y40640D02*
D03*
X93980D02*
D03*
X96520Y38100D02*
D03*
X93980D02*
D03*
X96520Y35560D02*
D03*
X93980D02*
D03*
X96520Y33020D02*
D03*
X93980D02*
D03*
X96520Y30480D02*
D03*
X93980D02*
D03*
Y27940D02*
D03*
X96520D02*
D03*
Y25400D02*
D03*
X93980D02*
D03*
X96520Y22860D02*
D03*
X93980D02*
D03*
X96520Y20320D02*
D03*
X93980D02*
D03*
X96520Y17780D02*
D03*
X93980D02*
D03*
X96520Y15240D02*
D03*
X93980D02*
D03*
X96520Y12700D02*
D03*
X93980D02*
D03*
X96520Y10160D02*
D03*
X93980D02*
D03*
X96520Y7620D02*
D03*
X93980D02*
D03*
X36576Y50800D02*
D03*
X39116D02*
D03*
X23876D02*
D03*
X26416D02*
D03*
X28956D02*
D03*
X31496D02*
D03*
X34036D02*
D03*
X55880Y2540D02*
D03*
X53340D02*
D03*
X68580D02*
D03*
X66040D02*
D03*
X63500D02*
D03*
X60960D02*
D03*
X58420D02*
D03*
X78740D02*
D03*
X76200D02*
D03*
X91440D02*
D03*
X88900D02*
D03*
X86360D02*
D03*
X83820D02*
D03*
X81280D02*
D03*
Y50800D02*
D03*
X83820D02*
D03*
X68580D02*
D03*
X71120D02*
D03*
X73660D02*
D03*
X76200D02*
D03*
X78740D02*
D03*
X58420D02*
D03*
X60960D02*
D03*
X45720D02*
D03*
X48260D02*
D03*
X50800D02*
D03*
X53340D02*
D03*
X55880D02*
D03*
D45*
X56810Y19230D02*
D03*
D46*
Y21770D02*
D03*
D47*
X61890Y14150D02*
D03*
Y24310D02*
D03*
D48*
X49890Y20278D02*
D03*
X31600Y18284D02*
D03*
D49*
X20030Y26000D02*
D03*
X26360Y33460D02*
D03*
X45720Y2540D02*
D03*
X41656Y50800D02*
D03*
X50800Y2540D02*
D03*
X73660D02*
D03*
X86360Y50800D02*
D03*
X63500D02*
D03*
D50*
X90170D02*
D03*
X96520Y2540D02*
D03*
X66040Y7620D02*
D03*
Y35560D02*
D03*
X13970Y2540D02*
D03*
X15240Y50800D02*
D03*
D51*
X41484Y41360D02*
D03*
X49352Y40300D02*
D03*
X31532Y44000D02*
D03*
X35270Y15200D02*
D03*
X50345Y42850D02*
D03*
X48620Y42195D02*
D03*
X38868Y41335D02*
D03*
X43900Y47832D02*
D03*
X26720Y6140D02*
D03*
X29850Y8200D02*
D03*
X34110Y12409D02*
D03*
X46890Y14058D02*
D03*
X37700Y15200D02*
D03*
X40100Y15250D02*
D03*
X36000Y41310D02*
D03*
X25990Y43000D02*
D03*
X27150Y41750D02*
D03*
X25990Y45000D02*
D03*
X27150Y46200D02*
D03*
X30032Y45381D02*
D03*
X28717Y42000D02*
D03*
X28900Y46200D02*
D03*
X30190Y42500D02*
D03*
X33032Y42200D02*
D03*
M02*
