G04*
G04 #@! TF.GenerationSoftware,Altium Limited,Altium Designer,20.0.14 (345)*
G04*
G04 Layer_Color=102*
%FSLAX43Y43*%
%MOMM*%
G71*
G01*
G75*
%ADD15R,2.000X1.200*%
%ADD16R,3.000X2.100*%
%ADD26R,1.700X1.000*%
%ADD27R,0.370X0.600*%
%ADD28R,1.003X1.003*%
%ADD29R,1.003X1.003*%
%ADD30R,1.103X0.803*%
%ADD31R,1.203X1.003*%
%ADD32R,0.803X1.103*%
%ADD33R,1.303X1.203*%
%ADD34R,0.803X1.253*%
%ADD35C,1.703*%
%ADD36C,1.603*%
%ADD37R,1.603X1.603*%
%ADD38C,2.753*%
%ADD39R,1.703X1.703*%
%ADD40R,1.703X1.703*%
%ADD41C,1.803*%
D15*
X27900Y17800D02*
D03*
Y15800D02*
D03*
D16*
X23450Y22050D02*
D03*
Y11550D02*
D03*
D26*
X31532Y44000D02*
D03*
D27*
X30782Y44950D02*
D03*
X31282D02*
D03*
X31782D02*
D03*
X32282D02*
D03*
Y43050D02*
D03*
X31782D02*
D03*
X31282D02*
D03*
X30782D02*
D03*
D28*
X46890Y19958D02*
D03*
Y18358D02*
D03*
X35300Y20950D02*
D03*
Y19350D02*
D03*
X37700Y20950D02*
D03*
Y19350D02*
D03*
X40100Y20950D02*
D03*
Y19350D02*
D03*
X38868Y46850D02*
D03*
Y45250D02*
D03*
X36000Y46800D02*
D03*
Y45200D02*
D03*
X41468Y46850D02*
D03*
Y45250D02*
D03*
D29*
X32400Y6140D02*
D03*
X30800D02*
D03*
D30*
X46890Y15408D02*
D03*
Y16908D02*
D03*
X35300Y16400D02*
D03*
Y17900D02*
D03*
X37700Y16400D02*
D03*
Y17900D02*
D03*
X40100Y16400D02*
D03*
Y17900D02*
D03*
X38868Y42300D02*
D03*
Y43800D02*
D03*
X36000Y42250D02*
D03*
Y43750D02*
D03*
X41468Y42300D02*
D03*
Y43800D02*
D03*
D31*
X30400Y11450D02*
D03*
X32800Y12400D02*
D03*
Y10500D02*
D03*
D32*
X30850Y8200D02*
D03*
X32350D02*
D03*
X27850Y6140D02*
D03*
X29350D02*
D03*
D33*
X27150Y43000D02*
D03*
X28850D02*
D03*
X27150Y45000D02*
D03*
X28850D02*
D03*
D34*
X45912Y46600D02*
D03*
X44012D02*
D03*
X44962Y43900D02*
D03*
D35*
X46890Y22004D02*
D03*
X34576Y6200D02*
D03*
X49890Y17738D02*
D03*
X31600Y15744D02*
D03*
X25110Y26000D02*
D03*
X22570D02*
D03*
X27650D02*
D03*
X37810D02*
D03*
X35270D02*
D03*
X32730D02*
D03*
X30190D02*
D03*
X40350D02*
D03*
X42890D02*
D03*
X6000Y3810D02*
D03*
X4000Y50000D02*
D03*
X88000Y8000D02*
D03*
Y46000D02*
D03*
X28900Y33460D02*
D03*
X26360Y36000D02*
D03*
X28900D02*
D03*
X36520Y33460D02*
D03*
X31440D02*
D03*
X33980D02*
D03*
X31440Y36000D02*
D03*
X36520D02*
D03*
X33980D02*
D03*
X40640Y2540D02*
D03*
X43180D02*
D03*
X27940D02*
D03*
X30480D02*
D03*
X33020D02*
D03*
X35560D02*
D03*
X38100D02*
D03*
X96520Y50800D02*
D03*
X93980D02*
D03*
X96520Y48260D02*
D03*
X93980D02*
D03*
X96520Y45720D02*
D03*
X93980D02*
D03*
X96520Y43180D02*
D03*
X93980D02*
D03*
X96520Y40640D02*
D03*
X93980D02*
D03*
X96520Y38100D02*
D03*
X93980D02*
D03*
X96520Y35560D02*
D03*
X93980D02*
D03*
X96520Y33020D02*
D03*
X93980D02*
D03*
X96520Y30480D02*
D03*
X93980D02*
D03*
Y27940D02*
D03*
X96520D02*
D03*
Y25400D02*
D03*
X93980D02*
D03*
X96520Y22860D02*
D03*
X93980D02*
D03*
X96520Y20320D02*
D03*
X93980D02*
D03*
X96520Y17780D02*
D03*
X93980D02*
D03*
X96520Y15240D02*
D03*
X93980D02*
D03*
X96520Y12700D02*
D03*
X93980D02*
D03*
X96520Y10160D02*
D03*
X93980D02*
D03*
X96520Y7620D02*
D03*
X93980D02*
D03*
X36576Y50800D02*
D03*
X39116D02*
D03*
X23876D02*
D03*
X26416D02*
D03*
X28956D02*
D03*
X31496D02*
D03*
X34036D02*
D03*
X55880Y2540D02*
D03*
X53340D02*
D03*
X68580D02*
D03*
X66040D02*
D03*
X63500D02*
D03*
X60960D02*
D03*
X58420D02*
D03*
X78740D02*
D03*
X76200D02*
D03*
X91440D02*
D03*
X88900D02*
D03*
X86360D02*
D03*
X83820D02*
D03*
X81280D02*
D03*
Y50800D02*
D03*
X83820D02*
D03*
X68580D02*
D03*
X71120D02*
D03*
X73660D02*
D03*
X76200D02*
D03*
X78740D02*
D03*
X58420D02*
D03*
X60960D02*
D03*
X45720D02*
D03*
X48260D02*
D03*
X50800D02*
D03*
X53340D02*
D03*
X55880D02*
D03*
D36*
X56810Y19230D02*
D03*
D37*
Y21770D02*
D03*
D38*
X61890Y14150D02*
D03*
Y24310D02*
D03*
D39*
X49890Y20278D02*
D03*
X31600Y18284D02*
D03*
D40*
X20030Y26000D02*
D03*
X26360Y33460D02*
D03*
X45720Y2540D02*
D03*
X41656Y50800D02*
D03*
X50800Y2540D02*
D03*
X73660D02*
D03*
X86360Y50800D02*
D03*
X63500D02*
D03*
D41*
X90170D02*
D03*
X96520Y2540D02*
D03*
X66040Y7620D02*
D03*
Y35560D02*
D03*
X13970Y2540D02*
D03*
X15240Y50800D02*
D03*
M02*
