M48
;Layer_Color=9474304
;FILE_FORMAT=4:3
METRIC,TZ
;TYPE=PLATED
T1F00S00C0.305
T2F00S00C0.890
T3F00S00C0.900
T4F00S00C1.000
T5F00S00C2.010
T6F00S00C3.200
%
T01
X26720Y6140
X29850Y8200
X49352Y40300
X50345Y42850
X48620Y42195
X41484Y41360
X38868Y41335
X36000Y41310
X33032Y42200
X30190Y42500
X28717Y42000
X27150Y41750
X25990Y43000
Y45000
X27150Y46200
X28900
X30032Y45381
X31532Y44000
X43900Y47832
X40100Y15250
X37700Y15200
X35270
X34110Y12409
X46890Y14058
T02
X56810Y19230
Y21770
T03
X6000Y3810
X34576Y6200
X88000Y8000
Y46000
X36520Y36000
Y33460
X33980
X31440
X28900
X26360
Y36000
X28900
X31440
X33980
X46890Y22004
X4000Y50000
T04
X27940Y2540
X30480
X33020
X35560
X38100
X40640
X43180
X45720
X50800
X53340
X55880
X58420
X60960
X63500
X66040
X68580
X73660
X76200
X78740
X81280
X83820
X86360
X88900
X91440
X93980Y7620
X96520
Y10160
Y12700
Y15240
Y17780
Y20320
Y22860
Y25400
Y27940
Y30480
Y33020
Y35560
Y38100
Y40640
Y43180
Y45720
X93980
Y43180
Y40640
Y38100
Y35560
Y33020
Y30480
Y27940
Y25400
Y22860
Y20320
Y17780
Y15240
Y12700
Y10160
X49890Y17738
Y20278
X42890Y26000
X40350
X37810
X35270
X32730
X30190
X27650
X25110
X22570
X20030
X31600Y18284
Y15744
X31496Y50800
X28956
X26416
X23876
X34036
X36576
X39116
X41656
X45720
X48260
X50800
X53340
X55880
X58420
X60960
X63500
X68580
X71120
X73660
X76200
X78740
X81280
X83820
X86360
X93980
X96520
Y48260
X93980
T05
X61890Y14150
Y24310
T06
X13970Y2540
X66040Y7620
X96520Y2540
X66040Y35560
X15240Y50800
X90170
M30
